<?xml version="1.0" encoding="UTF-8"?>
<svg id="Layer_1" data-name="Layer 1" xmlns="http://www.w3.org/2000/svg" xmlns:xlink="http://www.w3.org/1999/xlink" viewBox="0 0 900 300">
  <defs>
    <style>
      .cls-1 {
        stroke: #000;
        stroke-miterlimit: 3.96;
        stroke-width: 5.94px;
      }

      .cls-1, .cls-2 {
        fill: none;
      }

      .cls-3 {
        clip-path: url(#clippath-1);
      }

      .cls-4 {
        clip-path: url(#clippath);
      }
    </style>
    <clipPath id="clippath">
      <rect class="cls-2" x="21.33" y="6.67" width="858.67" height="276"/>
    </clipPath>
    <clipPath id="clippath-1">
      <rect class="cls-2" x="157.33" y="6.72" width="41.33" height="57.28"/>
    </clipPath>
  </defs>
  <g class="cls-4">
    <g>
      <path d="M26.37,46.2v-2.4h6.27v2.52c0,1.63.26,3.13.77,4.5.51,1.36,1.23,2.55,2.15,3.56.92,1,2,1.78,3.25,2.33,1.25.56,2.61.83,4.1.83,1.19,0,2.31-.18,3.35-.54,1.05-.36,2.01-.88,2.88-1.56.86-.68,1.59-1.49,2.21-2.44.63-.94,1.1-1.98,1.44-3.13.33-1.15.5-2.38.5-3.69v-26.48h6.27v26.48c0,2.08-.25,4.01-.75,5.77-.5,1.77-1.23,3.35-2.19,4.77-.96,1.41-2.12,2.6-3.48,3.6-1.35.99-2.88,1.74-4.58,2.25-1.71.53-3.57.79-5.58.79s-3.88-.27-5.58-.79c-1.71-.51-3.24-1.26-4.6-2.25-1.36-1-2.52-2.2-3.48-3.6-.95-1.42-1.68-3.01-2.19-4.77-.5-1.76-.75-3.69-.75-5.77Z"/>
      <path d="M71.69,62.49h-6.52l15.94-42.77h9.42l15.73,42.77h-6.67l-3.9-10.73h-20.04l-3.96,10.73ZM77.75,46.1h15.85l-7.85-21.63-8,21.63Z"/>
      <path d="M114.11,62.49V19.72h19.83c1.78,0,3.44.22,5,.67,1.57.43,2.98,1.06,4.25,1.88,1.26.81,2.34,1.78,3.25,2.92.9,1.13,1.59,2.39,2.08,3.79.48,1.39.73,2.89.73,4.5s-.24,3.1-.73,4.52c-.49,1.42-1.19,2.7-2.1,3.83-.91,1.14-1.99,2.12-3.25,2.94-1.27.82-2.68,1.45-4.23,1.9-1.56.43-3.22.65-5,.65h-13.56v15.19h-6.27ZM120.38,41.49h13.06c1.46,0,2.77-.19,3.94-.56,1.18-.38,2.19-.91,3.02-1.6.83-.71,1.47-1.55,1.92-2.52.44-.98.67-2.09.67-3.31s-.22-2.32-.67-3.29c-.43-.98-1.06-1.82-1.9-2.5-.82-.69-1.81-1.22-2.96-1.58-1.16-.38-2.45-.56-3.9-.56h-13.19v15.94Z"/>
      <g class="cls-3">
        <path d="M186.86,7.93l-6.48,9.56h-4.19l4.69-9.56h5.98ZM158.07,41.12c0-2.65.31-5.11.94-7.4.64-2.29,1.54-4.34,2.71-6.17,1.18-1.83,2.59-3.4,4.25-4.69,1.67-1.3,3.53-2.3,5.58-3,2.07-.69,4.3-1.04,6.71-1.04s4.64.35,6.71,1.04c2.07.7,3.93,1.7,5.58,3,1.67,1.29,3.09,2.85,4.27,4.69,1.18,1.82,2.08,3.88,2.71,6.17.63,2.28.94,4.74.94,7.4s-.31,5.12-.94,7.4c-.63,2.28-1.53,4.33-2.71,6.17-1.18,1.83-2.6,3.4-4.27,4.69-1.66,1.29-3.52,2.29-5.58,2.98-2.07.69-4.31,1.04-6.71,1.04s-4.64-.35-6.71-1.04c-2.06-.69-3.92-1.69-5.58-2.98-1.66-1.29-3.07-2.85-4.25-4.69-1.17-1.83-2.07-3.89-2.71-6.17-.63-2.28-.94-4.74-.94-7.4ZM164.36,41.12c0,2.57.31,4.87.94,6.9.64,2.03,1.55,3.75,2.75,5.17,1.21,1.42,2.67,2.5,4.38,3.25,1.72.75,3.67,1.13,5.83,1.13s4.13-.38,5.85-1.13c1.72-.75,3.18-1.83,4.38-3.25,1.21-1.42,2.13-3.14,2.75-5.17.64-2.03.96-4.32.96-6.9s-.32-4.89-.96-6.92c-.63-2.03-1.54-3.75-2.75-5.17-1.2-1.42-2.66-2.5-4.38-3.25-1.72-.75-3.68-1.13-5.85-1.13s-4.11.38-5.83,1.13c-1.71.75-3.17,1.83-4.38,3.25-1.2,1.42-2.11,3.14-2.75,5.17-.63,2.03-.94,4.33-.94,6.92Z"/>
      </g>
      <path d="M245.83,19.72v42.77h-10.19l-21.65-38.75v38.75h-6.13V19.72h11.1l20.73,37.15V19.72h6.13Z"/>
      <path d="M27.2,82.07h58.29c4.78,0,9.28.46,13.5,1.38,4.22.91,8.11,2.21,11.67,3.92,3.55,1.7,6.74,3.76,9.56,6.19,2.83,2.43,5.23,5.18,7.21,8.25,1.97,3.07,3.48,6.43,4.54,10.06,1.05,3.64,1.58,7.51,1.58,11.6s-.53,7.97-1.58,11.63c-1.06,3.66-2.57,7.02-4.54,10.08-1.97,3.07-4.39,5.83-7.23,8.27-2.83,2.45-6.03,4.52-9.58,6.23-3.56,1.71-7.45,3.02-11.67,3.94-4.22.91-8.71,1.35-13.46,1.35h-26.83v39.06h-31.46v-121.96ZM84.03,139.89c2.84,0,5.38-.36,7.6-1.1,2.23-.73,4.13-1.8,5.69-3.21,1.55-1.42,2.73-3.14,3.54-5.17.8-2.04,1.21-4.35,1.21-6.94s-.41-4.84-1.21-6.88c-.81-2.04-1.98-3.76-3.52-5.15-1.53-1.39-3.41-2.45-5.63-3.19-2.22-.75-4.74-1.13-7.54-1.13h-25.52v32.75h25.38Z"/>
      <path d="M146.52,204.03v-122h60.94c7.25,0,13.69.86,19.33,2.58,5.65,1.71,10.42,4.18,14.29,7.4,3.88,3.21,6.82,7.13,8.83,11.75,2.03,4.61,3.04,9.82,3.04,15.63,0,5.03-.8,9.6-2.4,13.71-1.58,4.11-3.85,7.64-6.79,10.58-2.95,2.93-6.5,5.24-10.67,6.92-4.17,1.68-8.83,2.6-14,2.77,5,.35,9.4,2.12,13.21,5.31,3.82,3.2,7.09,7.83,9.81,13.92l14.13,31.44h-35.02l-14.38-31.4c-1.11-2.44-2.17-4.45-3.17-6.02-.99-1.58-2.06-2.82-3.21-3.73-1.16-.92-2.45-1.55-3.88-1.9-1.43-.36-3.16-.54-5.19-.54h-13.44v43.58h-31.46ZM204,136.14c2.79,0,5.26-.32,7.42-.98,2.17-.65,3.98-1.6,5.46-2.85,1.48-1.25,2.61-2.79,3.4-4.63.78-1.83,1.17-3.92,1.17-6.25,0-4.67-1.5-8.22-4.5-10.67-3-2.44-7.33-3.67-12.98-3.67h-25.98v29.04h26.02Z"/>
      <path d="M354.42,82.07v26.08h-53.75v22.81h48.88v24.31h-48.88v22.65h55.19v26.1h-86.65v-121.96h85.21Z"/>
      <path d="M515.56,82.07v121.96h-31.46v-95.56l-26.96,95.56h-31.56l-26.77-95.6v95.6h-30.02v-121.96h49.63l24.63,87.92,24.73-87.92h47.79Z"/>
      <path d="M562.56,204.03h-31.46v-121.96h31.46v121.96Z"/>
      <path d="M577.24,82.07h31.46v70.52c0,4.83.48,8.99,1.46,12.48.97,3.49,2.4,6.35,4.29,8.6,1.89,2.24,4.22,3.89,7,4.96,2.79,1.07,5.99,1.6,9.6,1.6s6.84-.53,9.63-1.6c2.79-1.07,5.13-2.72,7-4.96,1.88-2.25,3.3-5.11,4.27-8.6.97-3.48,1.46-7.65,1.46-12.48v-70.52h31.46v73.33c0,8.22-1.32,15.52-3.96,21.88-2.64,6.35-6.34,11.7-11.1,16.04-4.77,4.35-10.44,7.65-17.02,9.9s-13.83,3.38-21.73,3.38c-5.27,0-10.24-.51-14.94-1.52-4.68-1.02-9.02-2.5-13.02-4.46-3.99-1.96-7.58-4.39-10.77-7.29-3.18-2.9-5.9-6.25-8.15-10.04-2.24-3.79-3.95-8.01-5.15-12.67-1.2-4.65-1.79-9.72-1.79-15.21v-73.33Z"/>
      <path d="M846.32,82.07v121.96h-31.46v-95.56l-26.96,95.56h-31.56l-26.77-95.6v95.6h-30.02v-121.96h49.63l24.63,87.92,24.73-87.92h47.79Z"/>
      <path class="cls-1" d="M267.64,42.26h576.99"/>
      <path d="M864.92,74.5c1.13,0,2.19.14,3.21.42,1.03.27,1.98.66,2.88,1.17.89.5,1.69,1.11,2.4,1.83.71.71,1.32,1.51,1.83,2.4.51.88.9,1.83,1.17,2.85.28,1.02.42,2.08.42,3.21s-.14,2.23-.42,3.27c-.28,1.04-.68,2.02-1.21,2.92-.52.89-1.14,1.7-1.85,2.44-.72.72-1.54,1.34-2.44,1.85-.89.53-1.85.93-2.88,1.21-1.03.28-2.11.42-3.25.42s-2.18-.14-3.21-.42c-1.03-.28-1.99-.68-2.88-1.19-.89-.52-1.7-1.13-2.42-1.83-.72-.72-1.34-1.53-1.85-2.42-.52-.9-.91-1.86-1.19-2.88-.28-1.03-.42-2.1-.42-3.23s.14-2.22.42-3.25c.29-1.03.69-1.98,1.21-2.88.53-.9,1.15-1.71,1.88-2.44.72-.72,1.53-1.34,2.42-1.85.9-.51,1.88-.91,2.92-1.19,1.04-.28,2.13-.42,3.27-.42ZM864.9,76.6c-.93,0-1.82.11-2.67.33-.85.22-1.64.54-2.35.96-.72.42-1.38.93-1.96,1.52-.58.58-1.08,1.24-1.5,1.98-.41.74-.72,1.54-.94,2.4-.21.85-.31,1.75-.31,2.71s.1,1.85.31,2.71c.22.85.53,1.64.94,2.38.4.74.89,1.4,1.46,1.98.57.58,1.21,1.09,1.92,1.52.72.42,1.49.74,2.31.96.83.22,1.71.33,2.63.33s1.81-.11,2.65-.33c.84-.23,1.63-.56,2.35-.98.72-.43,1.38-.94,1.96-1.54.58-.61,1.08-1.28,1.5-2.02.42-.75.73-1.56.96-2.44.22-.88.33-1.78.33-2.73s-.11-1.84-.33-2.69c-.21-.84-.52-1.63-.92-2.35-.41-.72-.89-1.36-1.46-1.94-.57-.58-1.21-1.07-1.92-1.48-.71-.42-1.48-.73-2.31-.94-.83-.22-1.72-.33-2.65-.33ZM862.69,92.12h-2.31v-11.06h5.56c.57,0,1.09.08,1.56.25.48.16.9.38,1.25.67.34.29.61.64.79,1.04.19.39.29.83.29,1.31,0,.56-.14,1.05-.4,1.48-.25.43-.6.77-1.06,1.02-.46.24-1,.36-1.63.38.8.07,1.46.66,1.96,1.75l1.42,3.17h-2.48l-1.42-2.92c-.13-.26-.27-.46-.44-.6-.16-.15-.35-.26-.58-.31-.24-.07-.54-.1-.9-.1h-1.63v3.94ZM862.69,85.98h2.6c.69,0,1.23-.11,1.63-.35.4-.25.6-.59.6-1.04,0-.42-.2-.73-.58-.96-.39-.23-.94-.35-1.65-.35h-2.6v2.71Z"/>
    </g>
  </g>
</svg>