<?xml version="1.0" encoding="UTF-8"?>
<svg id="Layer_1" xmlns="http://www.w3.org/2000/svg" version="1.1" xmlns:xlink="http://www.w3.org/1999/xlink" viewBox="0 0 900 300">
  <!-- Generator: Adobe Illustrator 29.8.3, SVG Export Plug-In . SVG Version: 2.1.1 Build 3)  -->
  <defs>
    <style>
      .st0 {
        fill: #fff;
      }

      .st1 {
        stroke: #fff;
        stroke-width: 6px;
      }

      .st1, .st2 {
        fill: none;
      }

      .st3 {
        clip-path: url(#clippath-1);
      }

      .st4 {
        clip-path: url(#clippath);
      }
    </style>
    <clipPath id="clippath">
      <rect class="st2" x="26.7" y="16" width="236" height="57.3"/>
    </clipPath>
    <clipPath id="clippath-1">
      <rect class="st2" x="861.3" y="78.7" width="28" height="29.3"/>
    </clipPath>
  </defs>
  <g class="st4">
    <g>
      <path class="st0" d="M62,17.5h6.6l-15.5,43.2h-9.5l-15.3-43.2h6.7l13.4,38.3,13.6-38.3Z"/>
      <path class="st0" d="M82.8,17.5v43.2h-6.3V17.5h6.3Z"/>
      <path class="st0" d="M97.4,60.7h-6.6l16.1-43.2h9.5l15.9,43.2h-6.7l-3.9-10.8h-20.2l-4,10.8ZM103.5,44.1h16l-7.9-21.8-8.1,21.8Z"/>
      <path class="st0" d="M137.7,44.2v-2.4h6.3v2.6c0,1.6.3,3.2.8,4.5.5,1.4,1.2,2.6,2.1,3.6.9,1,2,1.8,3.3,2.4,1.3.6,2.6.8,4.1.8s2.3-.2,3.4-.5c1.1-.4,2-.9,2.9-1.6.9-.7,1.6-1.5,2.2-2.5.6-.9,1.1-2,1.4-3.2.3-1.2.5-2.4.5-3.7v-26.7h6.3v26.7c0,2.1-.3,4.1-.8,5.9-.5,1.8-1.2,3.4-2.2,4.8-1,1.4-2.1,2.6-3.5,3.6-1.4,1-2.9,1.8-4.6,2.3-1.7.5-3.6.8-5.6.8s-3.9-.3-5.6-.8c-1.7-.5-3.3-1.3-4.6-2.3s-2.6-2.2-3.5-3.6c-1-1.4-1.7-3-2.2-4.8-.5-1.8-.8-3.7-.8-5.9Z"/>
      <path class="st0" d="M181.1,17.5h29.2v5.9h-22.8v12.8h21v5.9h-21v12.7h23.4v5.9h-29.8V17.5Z"/>
      <path class="st0" d="M236.4,16.6c2.6,0,4.9.3,7,1,2.1.6,3.9,1.6,5.4,2.8s2.6,2.7,3.4,4.4c.8,1.7,1.2,3.6,1.2,5.8h-6.2c0-1.3-.3-2.4-.8-3.4-.5-1-1.3-1.9-2.3-2.6-1-.7-2.1-1.3-3.4-1.6-1.3-.4-2.8-.6-4.4-.6s-2.1,0-3.2.3c-1.1.2-2.1.5-3,.8-.9.4-1.8.8-2.5,1.4-.7.6-1.3,1.2-1.7,2-.4.8-.6,1.7-.6,2.6s.2,1.6.5,2.2c.3.6.8,1.1,1.5,1.5.6.4,1.4.7,2.3,1,.9.3,1.9.5,3.1.7,1.2.2,2.4.4,3.8.6l2.2.3c1,.2,2.1.3,3.2.5,1.1.2,2.2.4,3.2.7,1.1.3,2.1.6,3,1,1,.4,1.9.9,2.7,1.5.8.6,1.6,1.3,2.2,2.1.6.8,1.1,1.7,1.4,2.8.3,1.1.5,2.3.5,3.7s-.3,3.4-.9,4.8c-.6,1.4-1.4,2.7-2.5,3.8-1.1,1.1-2.3,1.9-3.8,2.6-1.5.7-3.2,1.2-5,1.6-1.8.3-3.8.5-5.9.5s-5.5-.3-7.8-1c-2.3-.6-4.2-1.6-5.9-2.8-1.6-1.2-2.8-2.7-3.7-4.5-.8-1.8-1.3-3.8-1.3-6.1h6.2c0,1.3.3,2.5.9,3.6.6,1.1,1.4,2,2.5,2.7,1.1.7,2.4,1.3,3.9,1.7,1.5.4,3.2.6,5.1.6s2.5,0,3.7-.3c1.2-.2,2.3-.5,3.3-.9,1-.4,1.9-.9,2.6-1.5.8-.6,1.3-1.3,1.7-2.2.4-.8.6-1.8.6-2.9s-.2-1.8-.5-2.4c-.3-.7-.8-1.2-1.4-1.6-.6-.4-1.4-.8-2.3-1.1-.9-.3-1.8-.5-2.9-.7-1.1-.2-2.2-.4-3.4-.6l-2.8-.4c-1.1-.2-2.1-.3-3.2-.5-1.1-.2-2.2-.4-3.2-.7-1.1-.3-2.1-.6-3.1-1-1-.4-1.9-.9-2.7-1.4-.8-.5-1.5-1.2-2.1-1.9-.6-.8-1.1-1.6-1.4-2.6-.3-1-.5-2.2-.5-3.5s.3-3.3.9-4.7c.6-1.4,1.4-2.6,2.5-3.6,1.1-1,2.3-1.9,3.8-2.6,1.4-.7,3-1.2,4.8-1.6,1.7-.4,3.5-.5,5.4-.5Z"/>
    </g>
  </g>
  <path class="st0" d="M29.9,81h58.9c4.8,0,9.4.5,13.6,1.4,4.3.9,8.2,2.2,11.8,4,3.6,1.7,6.8,3.8,9.7,6.3,2.9,2.4,5.3,5.2,7.3,8.3,2,3.1,3.5,6.5,4.6,10.2,1.1,3.7,1.6,7.6,1.6,11.7s-.5,8-1.6,11.7c-1.1,3.7-2.6,7.1-4.6,10.2-2,3.1-4.4,5.9-7.3,8.4-2.9,2.5-6.1,4.6-9.7,6.3-3.6,1.7-7.5,3-11.8,4-4.3.9-8.8,1.4-13.6,1.4h-27.1v39.4h-31.8v-123.1ZM87.3,139.4c2.9,0,5.4-.4,7.7-1.1,2.3-.8,4.2-1.8,5.7-3.3,1.6-1.4,2.8-3.2,3.6-5.2.8-2.1,1.2-4.4,1.2-7s-.4-4.9-1.2-7c-.8-2.1-2-3.8-3.5-5.2-1.6-1.4-3.5-2.5-5.7-3.2-2.2-.8-4.8-1.1-7.6-1.1h-25.8v33.1h25.6Z"/>
  <path class="st0" d="M150.3,204.1v-123.2h61.5c7.3,0,13.8.9,19.5,2.6,5.7,1.7,10.5,4.2,14.4,7.5,3.9,3.2,6.9,7.2,8.9,11.9,2,4.7,3.1,9.9,3.1,15.8s-.8,9.7-2.4,13.9c-1.6,4.1-3.9,7.7-6.9,10.7s-6.6,5.3-10.8,7c-4.2,1.7-8.9,2.6-14.1,2.8,5.1.3,9.5,2.1,13.3,5.4,3.8,3.2,7.2,7.9,9.9,14l14.3,31.7h-35.4l-14.5-31.7c-1.1-2.5-2.2-4.5-3.2-6.1-1-1.6-2.1-2.9-3.3-3.8s-2.5-1.6-3.9-1.9c-1.4-.4-3.2-.5-5.2-.5h-13.6v44h-31.8ZM208.4,135.6c2.8,0,5.3-.3,7.5-1,2.2-.7,4-1.6,5.5-2.9,1.5-1.3,2.6-2.8,3.4-4.7.8-1.9,1.2-4,1.2-6.3,0-4.7-1.5-8.3-4.5-10.8-3-2.5-7.4-3.7-13.1-3.7h-26.2v29.3h26.3Z"/>
  <path class="st0" d="M360.2,81v26.3h-54.2v23h49.3v24.5h-49.3v22.9h55.7v26.4h-87.5v-123.1h86Z"/>
  <path class="st0" d="M522.8,81v123.1h-31.8v-96.5l-27.2,96.5h-31.9l-27-96.5v96.5h-30.3v-123.1h50.1l24.8,88.8,25-88.8h48.3Z"/>
  <path class="st0" d="M570.3,204.1h-31.8v-123.1h31.8v123.1Z"/>
  <path class="st0" d="M585.1,81h31.8v71.2c0,4.9.5,9.1,1.5,12.6,1,3.5,2.4,6.4,4.3,8.7,1.9,2.3,4.3,3.9,7.1,5,2.8,1.1,6.1,1.6,9.7,1.6s6.9-.5,9.7-1.6c2.8-1.1,5.2-2.8,7.1-5,1.9-2.3,3.3-5.2,4.3-8.7,1-3.5,1.5-7.7,1.5-12.6v-71.2h31.8v74c0,8.3-1.3,15.7-4,22.1-2.7,6.4-6.4,11.8-11.2,16.2-4.8,4.4-10.5,7.7-17.2,10-6.6,2.3-13.9,3.4-21.9,3.4s-10.3-.5-15.1-1.5c-4.7-1-9.1-2.5-13.1-4.5-4-2-7.7-4.4-10.9-7.4-3.2-2.9-5.9-6.3-8.2-10.1-2.3-3.8-4-8.1-5.2-12.8-1.2-4.7-1.8-9.8-1.8-15.4v-74Z"/>
  <path class="st0" d="M856.7,81v123.1h-31.8v-96.5l-27.2,96.5h-31.9l-27-96.5v96.5h-30.3v-123.1h50.1l24.8,88.8,25-88.8h48.3Z"/>
  <path class="st1" d="M277.1,40.9h581.8"/>
  <g class="st3">
    <path class="st0" d="M875.4,80.1c1.1,0,2.2.1,3.2.4,1,.3,2,.7,2.9,1.2.9.5,1.7,1.1,2.4,1.9.7.7,1.3,1.5,1.9,2.4.5.9.9,1.8,1.2,2.9.3,1,.4,2.1.4,3.3s-.1,2.3-.4,3.3c-.3,1-.7,2-1.2,2.9-.5.9-1.2,1.7-1.9,2.5-.7.7-1.5,1.4-2.4,1.9-.9.5-1.9.9-2.9,1.2-1,.3-2.1.4-3.3.4s-2.2-.1-3.3-.4c-1-.3-2-.7-2.9-1.2-.9-.5-1.7-1.1-2.4-1.9-.7-.7-1.3-1.5-1.9-2.4-.5-.9-.9-1.9-1.2-2.9-.3-1-.4-2.1-.4-3.3s.1-2.2.4-3.3c.3-1,.7-2,1.2-2.9.5-.9,1.2-1.7,1.9-2.4.7-.7,1.6-1.3,2.5-1.9.9-.5,1.9-.9,2.9-1.2,1.1-.3,2.2-.4,3.3-.4ZM875.4,82.2c-.9,0-1.8.1-2.7.3-.8.2-1.6.6-2.4,1-.7.4-1.4.9-2,1.5-.6.6-1.1,1.3-1.5,2-.4.7-.7,1.5-1,2.4-.2.9-.3,1.8-.3,2.7s.1,1.9.3,2.7c.2.9.5,1.7.9,2.4.4.7.9,1.4,1.5,2,.6.6,1.2,1.1,1.9,1.5.7.4,1.5.7,2.3,1,.8.2,1.7.3,2.6.3s1.8-.1,2.7-.3c.8-.2,1.6-.6,2.4-1,.7-.4,1.4-.9,2-1.6.6-.6,1.1-1.3,1.5-2s.7-1.6,1-2.4c.2-.9.3-1.8.3-2.8s-.1-1.8-.3-2.7c-.2-.9-.5-1.7-.9-2.4-.4-.7-.9-1.4-1.5-2-.6-.6-1.2-1.1-1.9-1.5-.7-.4-1.5-.7-2.3-1-.8-.2-1.7-.3-2.7-.3ZM873.2,97.9h-2.3v-11.2h5.6c.6,0,1.1,0,1.6.3.5.2.9.4,1.3.7.3.3.6.6.8,1,.2.4.3.8.3,1.3s-.1,1.1-.4,1.5c-.3.4-.6.8-1.1,1-.5.2-1,.4-1.6.4.8,0,1.5.7,2,1.8l1.4,3.2h-2.5l-1.4-3c-.1-.3-.3-.5-.4-.6-.2-.2-.3-.3-.6-.3-.2,0-.5-.1-.9-.1h-1.6v4ZM873.2,91.7h2.6c.7,0,1.2-.1,1.6-.4.4-.3.6-.6.6-1s-.2-.8-.6-1c-.4-.2-.9-.4-1.7-.4h-2.6v2.7Z"/>
  </g>
</svg>