<?xml version="1.0" encoding="UTF-8"?>
<svg id="Capa_2" xmlns="http://www.w3.org/2000/svg" version="1.1" viewBox="0 0 1500 311.3">
  <!-- Generator: Adobe Illustrator 29.8.3, SVG Export Plug-In . SVG Version: 2.1.1 Build 3)  -->
  <defs>
    <style>
      .st0 {
        fill: #fff;
      }

      .st1 {
        fill: #ed1b23;
      }
    </style>
  </defs>
  <g id="layer">
    <g>
      <g>
        <path class="st0" d="M458.2,133.3v45c0,16.7-10.2,23.9-22.6,23.9s-21.4-9.4-22.6-23.1h14.4c0,5,1,12.4,8.2,12.4s7.7-8.7,8.2-13.7v-44.8h14.4v.2h0Z"/>
        <path class="st0" d="M468.4,167.1c0-6,2.7-9.4,6.5-11.7,3.7-2.2,8.7-3,13.9-3,9.5,0,19.9,3.5,19.9,17.6v25.6c0,2.2.5,3.7.8,5.2h-12.7c-.2-2.2-.5-4.2-.5-6.2h-.2c-3.2,5.5-8,7.7-14.4,7.7s-15.4-5-15.4-14.2,1.5-11.2,9.9-14.9c5.7-2.5,12.7-2.7,18.4-2.5v-4.5c0-2-1.5-5.7-6.5-5.7s-6.5,4.5-6.2,6.7h-13.4v-.2h0ZM479.6,186c0,4,3,6.7,6.7,6.7,7.7,0,8-8.4,8-14.2-4.7,0-14.7,0-14.7,7.5"/>
        <path class="st0" d="M533,159.4h0c2.7-4,8-6.7,12.7-6.7,14.7,0,21.9,12.2,21.9,24.9s-6.5,24.9-20.1,24.9-11.2-2.5-14.2-8h-.2v24.6h-13.9v-55.4c0-3-.2-6.2-.5-9.4h14.2l.2,5.2h0ZM543,192.9c9,0,10.2-8.4,10.2-15.4s-1.2-15.4-10.2-15.4-10.2,8.9-10.2,15.4,2.7,15.4,10.2,15.4"/>
        <path class="st0" d="M575.6,167.1c0-6,2.7-9.4,6.5-11.7,3.7-2.2,8.7-3,13.9-3,9.5,0,19.9,3.5,19.9,17.6v25.6c0,2.2.5,3.7.8,5.2h-12.7c-.2-2.2-.5-4.2-.5-6.2h-.2c-3.2,5.5-8,7.7-14.4,7.7s-15.4-5-15.4-14.2,1.5-11.2,9.9-14.9c5.7-2.5,12.7-2.7,18.4-2.5v-4.5c0-2-1.5-5.7-6.5-5.7s-6.5,4.5-6.2,6.7h-13.4v-.2h0ZM586.8,186c0,4,3,6.7,6.7,6.7,7.7,0,8-8.4,8-14.2-4.7,0-14.7,0-14.7,7.5"/>
        <path class="st0" d="M639.7,159.4l.2.2c3-4.2,7.2-7.2,14.4-7.2s13.7,3.5,15.4,10.2c.8,3,1,6,1,7.5v30.6h-13.9v-28.1c0-5-1.5-10.7-8.5-10.7s-8.2,4-8.5,10.7v28.3h-13.9v-47h13.9v5.5h-.2,0Z"/>
        <rect class="st0" x="682" y="188.2" width="11.9" height="12.4"/>
        <polygon class="st0" points="736.2 200.9 736.2 133.3 776.5 133.3 776.5 139 742.4 139 742.4 163.1 775 163.1 775 168.8 742.4 168.8 742.4 195.2 777.7 195.2 777.7 200.9 736.2 200.9"/>
        <path class="st0" d="M796.8,200.9h-5.7v-36.3c0-3.7-.2-7.5-.5-10.4h5.7l.2,7,.2.2c3.2-5.7,8.5-8.4,14.7-8.4,15.4,0,16.7,13.7,16.7,18.9v29.3h-5.7v-30.3c0-8.2-4.7-12.9-12.4-12.9s-13.4,7.7-13.4,16.2v26.9h.2Z"/>
        <path class="st0" d="M873.7,193.9l-.2-.2c-3.7,5.5-9.5,8.7-16.2,8.7-13.9,0-19.1-13.2-19.1-25.1s5.2-24.6,19.1-24.6,12.7,3,16.2,8.4l.2-.2v-27.4h5.5v56.9c0,3.7.2,7.5.5,10.4h-5.7l-.2-7h0ZM858.2,157.6c-10.7,0-14.2,9.9-14.2,18.9s2.5,20.6,13.2,20.6,15.9-10.2,15.9-20.9c.2-9.7-4-18.6-14.9-18.6"/>
        <rect class="st0" x="893.3" y="133.3" width="5.7" height="67.4"/>
        <path class="st0" d="M917.4,178.8c.2,9.9,4.7,18.4,16.2,18.4s12.2-4.7,13.7-11.2h6c-3,11.2-9.9,16.4-21.1,16.4s-20.6-11.9-20.6-24.9,7-24.9,20.9-24.9,21.4,11.4,21.4,26.1h-36.3,0ZM947.5,173.5c-.8-8.9-5.5-15.9-15.2-15.9s-13.9,7.7-14.7,15.9h29.8Z"/>
        <path class="st0" d="M979.8,152.4c9,0,16.4,3,17.2,12.9h-6c-.5-6-5.7-8-11.7-8s-10.4,2-10.4,7.7,9,6.2,21.6,10.7c5,1.7,8,6,8,10.9,0,10.4-9.7,15.4-19.6,15.4s-17.4-3.7-17.7-14.2h6c.5,7,6.7,8.9,12.9,8.9s12.2-2.7,12.2-9.4-7.5-8-14.9-9.4c-7.5-1.7-14.9-4-14.9-12.7s9.2-12.9,17.4-12.9"/>
        <path class="st0" d="M1024.6,152.4c8.9,0,16.4,3,17.2,12.9h-6.2c-.5-6-5.7-8-11.7-8s-10.4,2-10.4,7.7,9,6.2,21.6,10.7c5,1.7,8,6,8,10.9,0,10.4-9.7,15.4-19.6,15.4s-17.4-3.7-17.7-14.2h6c.5,7,6.7,8.9,12.9,8.9s12.2-2.7,12.2-9.4-7.5-8-14.9-9.4c-7.5-1.7-14.9-4-14.9-12.7.5-9.4,9.5-12.9,17.7-12.9"/>
        <path class="st0" d="M1100.9,133.3c22.1,0,34.8,11.4,34.8,33.8s-12.7,33.8-34.8,33.8h-18.2v-67.4h18.2v-.2h0ZM1102.4,195.2c18.9,0,26.8-11.2,26.8-28.1s-11.7-28.6-30.8-28.1h-9.4v56.2h13.4,0Z"/>
        <path class="st0" d="M1155.3,140.2h-6.7v-7h6.5v7h.2ZM1154.8,200.6h-5.7v-47h5.7v47Z"/>
        <path class="st0" d="M1185.4,152.4c8.9,0,16.4,3,17.2,12.9h-6c-.5-6-5.7-8-11.7-8s-10.4,2-10.4,7.7,8.9,6.2,21.9,10.7c4.7,1.7,8,6,8,10.9,0,10.4-9.9,15.4-19.6,15.4s-17.4-3.7-17.7-14.2h6.2c.5,7,6.7,8.9,12.9,8.9s12.2-2.7,12.2-9.4-7.5-8-14.9-9.4c-7.5-1.7-14.9-4-14.9-12.7-.2-9.4,8.7-12.9,16.9-12.9"/>
        <path class="st0" d="M1246.1,168.3c-.5-7.2-5-10.7-12.7-10.7s-13.9,8.9-13.9,19.6,5.2,19.9,13.9,19.9,12.4-4.5,12.7-10.9h6c-1.5,10.7-7.7,16.2-18.4,16.2s-20.6-11.9-20.6-24.9,7-24.9,20.9-24.9,17.4,5.7,17.9,15.7h-5.7,0Z"/>
        <path class="st0" d="M1305.5,177.3c0,12.4-7,24.9-21.9,24.9s-21.9-12.4-21.9-24.9,7-24.9,21.9-24.9,21.9,12.7,21.9,24.9M1283.6,157.6c-11.4,0-15.7,10.9-15.7,19.6s4.5,19.6,15.7,19.6,15.7-10.9,15.7-19.6-4.5-19.6-15.7-19.6"/>
        <polygon class="st0" points="1315.2 153.9 1331.4 192.9 1347 153.9 1353.3 153.9 1334.6 200.9 1328.2 200.9 1309 153.9 1315.2 153.9"/>
        <path class="st0" d="M1363.2,178.8c.2,9.9,4.7,18.4,16.2,18.4s12.2-4.7,13.7-11.2h6c-3,11.2-9.9,16.4-21.1,16.4s-20.6-11.9-20.6-24.9,7-24.9,20.9-24.9,21.4,11.4,21.4,26.1h-36.3,0ZM1393.5,173.5c-.8-8.9-5.5-15.9-15.2-15.9s-13.9,7.7-14.7,15.9h29.8Z"/>
        <path class="st0" d="M1417.7,200.9h-5.7v-36.3c0-3.7-.2-7.5-.5-10.4h5.7l.2,7h.2c1.7-4.7,6-8.2,10.4-8.2h5.7v5.5c-1,0-2.2-.5-3.5-.5-8.4,0-12.7,6-12.9,14.9v28.1h.3Z"/>
        <polygon class="st0" points="1447 153.9 1462.7 193.2 1478.3 153.9 1484.5 153.9 1458.7 218.8 1452.5 218.8 1459.7 200.9 1440 153.9 1447 153.9"/>
        <rect class="st0" x="1484" y="192.7" width="7.5" height="8"/>
        <path class="st1" d="M298.9,184.5c1-11.7,10.7-25.1,27.1-32.6,3.5-1.5,7.5-2.5,11.2-3.2C333.4,65.9,265.3,0,181.7,0S26.1,69.6,26.1,155.6s0,5.2.2,8c1.7-1.7,3-3,3.2-2.7-.2-.2,3.5,6.2,2.7,14.9,4.5-7.5,11.4-10.4,10.9-10.4.2,0,3.5,12.9,0,23.6-2,6.2-5.5,11.4-9.5,15.2,20.4,62.2,78.8,107.2,147.9,107.2s62.2-9.7,86.8-26.6c-.5-.5-1-1-1.2-1.7-8-11.2-8.2-24.1-5.5-31.6,8.7-1,20.4,4,28.3,15.2.2.2.2.3.2.5,21.4-20.9,36.8-48,43.3-78.3-13.9,3.5-27.1.5-34.8-4.2M258.1,130.3c3-9.9,12.2-18.2,12.2-17.9-.2-.2,3.5,5.5,3,13.7,4-7,10.2-9.9,9.9-9.9.2,0,3.5,11.9.5,21.6-3.7,12.4-13.2,20.1-20.4,22.4-5.7-5.7-8.7-17.4-5.2-29.8M183,161.1c15.2-5,33.6-.5,33.6,0,0-.5-4.2,9.2-14.9,15.7,12.4-1,21.4,4.5,21.1,4,.2.2-11.9,14.7-27.1,19.6-19.1,6.2-37,.5-46.5-6.5,2.7-12.9,14.9-26.6,33.8-32.8M57.9,180.5c-.2.5,8.7-5,21.1-4-10.7-6.5-14.9-16.2-14.9-15.7,0-.2,18.4-5,33.6,0,19.1,6.2,30.3,21.4,33.6,32.6-9.4,8.7-27.3,12.7-46.5,6.5-14.9-4.7-27.1-19.1-26.8-19.4M126.8,250.1c-9.4,12.9-27.1,20.1-27.1,19.9.2.5-2-9.9,2.7-21.4-9.4,8.2-19.9,9.2-19.4,9.2-.2,0,1-18.9,10.4-31.8,11.7-16.2,29.8-22.1,41.5-21.9,5.2,11.7,3.5,29.8-8.2,46M119.8,145c0-15.9,9.9-32.1,10.2-32.1-.5-.2,7.5,6.7,10.2,18.9,2.7-12.2,10.7-19.1,10.2-18.9.2-.2,10.2,15.9,10.2,32.1s-10.9,35.3-20.6,42c-10.7-6.2-20.1-21.9-20.1-42M197.6,257.9c.5-.2-9.9-1-19.4-9.2,5,11.4,2.5,21.9,2.7,21.4,0,.2-17.6-7-27.1-19.9-11.7-16.2-11.9-35.1-8.2-46.2,12.7-1.5,29.6,5.7,41.5,21.9,9.4,13.2,10.9,32.1,10.4,32.1M201.3,235.2c-.2.2,6-3.5,14.4-2.7-7.5-4.5-10.2-11.2-10.2-10.7,0-.2,12.7-3.2,23.1,0,13.2,4.2,20.6,14.7,23.1,22.4-6.5,6-18.6,8.7-31.8,4.5-10.4-3.2-18.9-13.2-18.6-13.4M248.6,283c-6.5,9-18.4,13.9-18.6,13.7.2.2-1.5-6.7,2-14.7-6.5,5.7-13.7,6.2-13.4,6.2-.2,0,.8-12.9,7.2-21.9,8.2-11.2,20.4-15.2,28.3-15.2,3.7,8.2,2.5,20.9-5.5,31.8M257.8,240c-7.7-4.5-14.2-15.2-14.2-28.8s7-22.1,7-21.9c-.2-.2,5.2,4.7,7,12.9,2-8.4,7.5-13.2,7-12.9.2-.2,7,10.9,7,21.9.5,13.7-7.2,24.1-13.7,28.8M295.8,248.7c-13.2,4.2-25.4.2-31.8-4.5,1.7-8.7,9.9-18.1,23.1-22.4,10.4-3.5,23.1-.2,23.1,0,0-.2-2.7,6.5-10.2,10.7,8.5-.8,14.7,3,14.4,2.7,0,.2-8.2,10.2-18.6,13.4M285.9,296.6c-.2.2,1.5-6.7-2-14.7,6.5,5.7,13.7,6.2,13.4,6.2.2,0-.8-12.4-6.7-21.4-6.7,6.5-13.9,12.4-21.9,17.9,6.5,8,16.9,12.2,17.2,11.9M15.7,180c-4.2,13.4-1.5,25.9,4.7,32.6,4.2-1.2,8.9-4.2,13.4-8.4-4.2-12.9-6.7-26.4-7.5-40.3-3.2,3.2-8.5,9.2-10.7,16.2M377.7,78.1c10.2-5,14.7-13.4,14.7-12.9.2-.2-16.2-6-30.3-2.7-17.6,4-29.6,15.4-33.1,26.6,8,7,23.6,13.7,41.3,9.7,14.2-3.2,26.4-15.2,26.1-15.4.2.5-7.5-5.2-18.6-5.2M34.3,258.8c6.7-5.7,8.5-12.9,8.5-12.4,0-.2-13.2-1.2-23.1,3.7C7.2,256.6.3,267.5,0,276.5c7.2,3.7,20.4,5.7,32.8-.8,9.9-5,16.9-16.4,16.7-16.7.2.5-6.7-2.5-15.2-.2M344.3,164.1c9-6.7,11.9-15.9,11.9-15.4,0-.2-9-1.5-18.9.2,0,2.2.2,4.5.2,7,0,11.2-1.2,22.4-3.5,32.8,2.5-.8,5-1.5,7.5-2.7,13.2-6,22.9-20.1,22.6-20.4-.2.5-9-3.5-19.9-1.5"/>
      </g>
      <g>
        <path class="st0" d="M453.2,36.5c2.9,2.4,4.3,5.7,4.3,9.8s-1.4,7.5-4.3,9.8c-2.9,2.4-6.8,3.6-11.8,3.6h-9.5v11.7h-5.5v-38.5h15c5,0,8.9,1.2,11.8,3.6h0ZM449.3,52.8c1.8-1.5,2.8-3.6,2.8-6.4s-.9-4.9-2.8-6.4-4.5-2.2-8-2.2h-9.4v17.3h9.4c3.5,0,6.1-.7,8-2.2Z"/>
        <path class="st0" d="M471.3,43.4c1.8-.9,4-1.3,6.5-1.3v5.1c-.3,0-.7,0-1.2,0-2.9,0-5.1.8-6.7,2.6-1.6,1.7-2.5,4.1-2.5,7.3v14.5h-5.3v-29.1h5.1v4.9c.9-1.7,2.3-3,4.1-3.8h0Z"/>
        <path class="st0" d="M486.5,69.9c-2.3-1.3-4.1-3.1-5.4-5.3s-2-4.8-2-7.7.6-5.4,2-7.7,3.1-4,5.4-5.3,4.9-1.9,7.8-1.9,5.5.6,7.8,1.9c2.3,1.3,4.1,3,5.4,5.3s2,4.8,2,7.7-.6,5.4-2,7.7-3.1,4-5.4,5.3c-2.3,1.3-4.9,1.9-7.8,1.9s-5.5-.6-7.8-1.9ZM499.3,65.9c1.5-.9,2.6-2.1,3.5-3.6s1.3-3.3,1.3-5.4-.4-3.8-1.3-5.4-2-2.8-3.5-3.6c-1.5-.8-3.2-1.3-5-1.3s-3.5.4-5,1.3-2.7,2-3.5,3.6c-.9,1.6-1.3,3.3-1.3,5.4s.4,3.8,1.3,5.4c.9,1.6,2,2.8,3.5,3.6s3.2,1.3,5,1.3,3.5-.4,5-1.3Z"/>
        <path class="st0" d="M542,30.6v40.8h-5.1v-4.6c-1.2,1.6-2.7,2.8-4.5,3.7-1.8.8-3.8,1.3-5.9,1.3s-5.3-.6-7.6-1.9c-2.2-1.2-4-3-5.2-5.2s-1.9-4.8-1.9-7.8.6-5.5,1.9-7.8c1.3-2.2,3-4,5.2-5.2,2.2-1.2,4.8-1.9,7.6-1.9s4,.4,5.8,1.2c1.8.8,3.2,2,4.4,3.5v-16h5.3,0ZM532,65.9c1.5-.9,2.7-2.1,3.5-3.6s1.3-3.3,1.3-5.4-.4-3.8-1.3-5.4-2-2.8-3.5-3.6-3.2-1.3-5-1.3-3.5.4-5,1.3c-1.5.8-2.7,2-3.5,3.6-.9,1.6-1.3,3.3-1.3,5.4s.4,3.8,1.3,5.4,2,2.8,3.5,3.6,3.2,1.3,5,1.3,3.5-.4,5-1.3Z"/>
        <path class="st0" d="M577,42.3v29.1h-5v-4.4c-1.1,1.5-2.5,2.7-4.2,3.5-1.7.8-3.6,1.2-5.7,1.2-3.9,0-7-1.1-9.2-3.2-2.2-2.1-3.3-5.3-3.3-9.5v-16.8h5.3v16.2c0,2.8.7,5,2,6.4,1.3,1.4,3.3,2.2,5.8,2.2s5-.8,6.6-2.5c1.6-1.7,2.4-4.1,2.4-7.2v-15.1h5.3,0Z"/>
        <path class="st0" d="M589.6,69.9c-2.3-1.3-4.2-3.1-5.5-5.3-1.3-2.2-2-4.8-2-7.7s.7-5.4,2-7.7,3.1-4,5.5-5.3c2.3-1.3,5-1.9,7.9-1.9s5,.5,7.1,1.6c2.1,1.1,3.7,2.6,4.8,4.6l-4,2.6c-.9-1.4-2-2.4-3.4-3.1-1.3-.7-2.9-1-4.5-1s-3.6.4-5.1,1.3-2.7,2-3.6,3.6c-.9,1.6-1.3,3.3-1.3,5.4s.4,3.9,1.3,5.4,2,2.8,3.6,3.6,3.2,1.3,5.1,1.3,3.2-.3,4.5-1c1.4-.7,2.5-1.7,3.4-3.1l4,2.5c-1.1,2-2.7,3.6-4.8,4.7s-4.4,1.6-7.1,1.6-5.6-.6-7.9-1.9h0Z"/>
        <path class="st0" d="M630.8,69.8c-.8.7-1.7,1.2-2.9,1.5s-2.3.5-3.5.5c-2.9,0-5.2-.8-6.8-2.4-1.6-1.6-2.4-3.8-2.4-6.8v-16h-5v-4.3h5v-6.4h5.3v6.4h8.4v4.3h-8.4v15.8c0,1.6.4,2.8,1.2,3.6s1.9,1.3,3.4,1.3,3-.5,4.1-1.4l1.7,3.8h0Z"/>
        <path class="st0" d="M638.7,69.9c-2.3-1.3-4.1-3.1-5.4-5.3s-2-4.8-2-7.7.7-5.4,2-7.7,3.1-4,5.4-5.3,4.9-1.9,7.8-1.9,5.5.6,7.8,1.9c2.3,1.3,4.1,3,5.4,5.3s2,4.8,2,7.7-.7,5.4-2,7.7-3.1,4-5.4,5.3c-2.3,1.3-4.9,1.9-7.8,1.9s-5.5-.6-7.8-1.9ZM651.5,65.9c1.5-.9,2.7-2.1,3.5-3.6.8-1.6,1.3-3.3,1.3-5.4s-.4-3.8-1.3-5.4-2-2.8-3.5-3.6c-1.5-.8-3.2-1.3-5-1.3s-3.5.4-5,1.3c-1.5.8-2.7,2-3.5,3.6-.9,1.6-1.3,3.3-1.3,5.4s.4,3.8,1.3,5.4,2,2.8,3.5,3.6,3.2,1.3,5,1.3,3.5-.4,5-1.3Z"/>
        <path class="st0" d="M706.9,36.5c2.9,2.4,4.3,5.7,4.3,9.8s-1.4,7.5-4.3,9.8-6.8,3.6-11.8,3.6h-9.5v11.7h-5.5v-38.5h15c5,0,8.9,1.2,11.8,3.6h0ZM702.9,52.8c1.8-1.5,2.8-3.6,2.8-6.4s-.9-4.9-2.8-6.4-4.5-2.2-8-2.2h-9.3v17.3h9.3c3.5,0,6.1-.7,8-2.2Z"/>
        <path class="st0" d="M724.9,43.4c1.8-.9,4-1.3,6.5-1.3v5.1c-.3,0-.7,0-1.2,0-2.9,0-5.1.8-6.7,2.6-1.6,1.7-2.5,4.1-2.5,7.3v14.5h-5.3v-29.1h5.1v4.9c.9-1.7,2.3-3,4.1-3.8h0Z"/>
        <path class="st0" d="M740.1,69.9c-2.3-1.3-4.1-3.1-5.4-5.3s-2-4.8-2-7.7.7-5.4,2-7.7,3.1-4,5.4-5.3,4.9-1.9,7.8-1.9,5.5.6,7.8,1.9c2.3,1.3,4.1,3,5.4,5.3s2,4.8,2,7.7-.7,5.4-2,7.7-3.1,4-5.4,5.3c-2.3,1.3-4.9,1.9-7.8,1.9s-5.5-.6-7.8-1.9ZM753,65.9c1.5-.9,2.7-2.1,3.5-3.6.8-1.6,1.3-3.3,1.3-5.4s-.4-3.8-1.3-5.4-2-2.8-3.5-3.6c-1.5-.8-3.2-1.3-5-1.3s-3.5.4-5,1.3c-1.5.8-2.7,2-3.5,3.6-.9,1.6-1.3,3.3-1.3,5.4s.4,3.8,1.3,5.4,2,2.8,3.5,3.6,3.2,1.3,5,1.3,3.5-.4,5-1.3Z"/>
        <path class="st0" d="M813.3,45.2c2.1,2.1,3.2,5.3,3.2,9.5v16.8h-5.3v-16.2c0-2.8-.7-5-2-6.4s-3.2-2.1-5.6-2.1-4.8.8-6.4,2.5-2.4,4.1-2.4,7.2v15h-5.3v-16.2c0-2.8-.7-5-2-6.4s-3.2-2.1-5.6-2.1-4.8.8-6.4,2.5-2.4,4.1-2.4,7.2v15h-5.3v-29.1h5.1v4.3c1.1-1.5,2.5-2.7,4.2-3.4,1.7-.8,3.7-1.2,5.9-1.2s4.3.5,6,1.4c1.8.9,3.1,2.2,4.1,4,1.1-1.7,2.6-3,4.6-4,2-1,4.2-1.4,6.6-1.4,3.7,0,6.6,1.1,8.7,3.2h0Z"/>
        <path class="st0" d="M828.9,69.9c-2.3-1.3-4.1-3.1-5.4-5.3s-2-4.8-2-7.7.7-5.4,2-7.7,3.1-4,5.4-5.3,4.9-1.9,7.8-1.9,5.5.6,7.8,1.9c2.3,1.3,4.1,3,5.4,5.3s2,4.8,2,7.7-.7,5.4-2,7.7-3.1,4-5.4,5.3c-2.3,1.3-4.9,1.9-7.8,1.9s-5.5-.6-7.8-1.9ZM841.8,65.9c1.5-.9,2.7-2.1,3.5-3.6.8-1.6,1.3-3.3,1.3-5.4s-.4-3.8-1.3-5.4-2-2.8-3.5-3.6c-1.5-.8-3.2-1.3-5-1.3s-3.5.4-5,1.3c-1.5.8-2.7,2-3.5,3.6-.9,1.6-1.3,3.3-1.3,5.4s.4,3.8,1.3,5.4,2,2.8,3.5,3.6,3.2,1.3,5,1.3,3.5-.4,5-1.3Z"/>
        <path class="st0" d="M861.7,69.9c-2.3-1.3-4.2-3.1-5.5-5.3-1.3-2.2-2-4.8-2-7.7s.7-5.4,2-7.7,3.1-4,5.5-5.3c2.3-1.3,5-1.9,7.9-1.9s5,.5,7.1,1.6c2.1,1.1,3.7,2.6,4.8,4.6l-4,2.6c-.9-1.4-2-2.4-3.4-3.1-1.3-.7-2.9-1-4.5-1s-3.6.4-5.1,1.3-2.7,2-3.6,3.6c-.9,1.6-1.3,3.3-1.3,5.4s.4,3.9,1.3,5.4,2,2.8,3.6,3.6,3.2,1.3,5.1,1.3,3.2-.3,4.5-1c1.4-.7,2.5-1.7,3.4-3.1l4,2.5c-1.1,2-2.7,3.6-4.8,4.7s-4.4,1.6-7.1,1.6-5.6-.6-7.9-1.9h0Z"/>
        <path class="st0" d="M886.2,35.7c-.7-.7-1-1.5-1-2.4s.3-1.8,1-2.5,1.5-1,2.6-1,1.9.3,2.6,1,1,1.4,1,2.4-.3,1.8-1,2.5-1.5,1-2.6,1-1.9-.3-2.6-1h0ZM886.2,42.3h5.3v29.1h-5.3v-29.1Z"/>
        <path class="st0" d="M904,69.9c-2.3-1.3-4.1-3.1-5.4-5.3s-2-4.8-2-7.7.7-5.4,2-7.7,3.1-4,5.4-5.3,4.9-1.9,7.8-1.9,5.5.6,7.8,1.9c2.3,1.3,4.1,3,5.4,5.3s2,4.8,2,7.7-.7,5.4-2,7.7-3.1,4-5.4,5.3c-2.3,1.3-4.9,1.9-7.8,1.9s-5.5-.6-7.8-1.9ZM916.8,65.9c1.5-.9,2.7-2.1,3.5-3.6.8-1.6,1.3-3.3,1.3-5.4s-.4-3.8-1.3-5.4-2-2.8-3.5-3.6c-1.5-.8-3.2-1.3-5-1.3s-3.5.4-5,1.3c-1.5.8-2.7,2-3.5,3.6-.9,1.6-1.3,3.3-1.3,5.4s.4,3.8,1.3,5.4,2,2.8,3.5,3.6,3.2,1.3,5,1.3,3.5-.4,5-1.3Z"/>
        <path class="st0" d="M956.4,45.2c2.2,2.2,3.3,5.3,3.3,9.4v16.8h-5.3v-16.2c0-2.8-.7-5-2-6.4-1.4-1.4-3.3-2.1-5.8-2.1s-5.1.8-6.8,2.5-2.5,4.1-2.5,7.2v15h-5.3v-29.1h5.1v4.4c1.1-1.5,2.5-2.7,4.3-3.5s3.9-1.2,6.2-1.2c3.7,0,6.6,1.1,8.8,3.2h0Z"/>
        <path class="st0" d="M987.1,45c2.2,2,3.2,4.9,3.2,8.8v17.6h-5v-3.8c-.9,1.4-2.1,2.4-3.8,3.1-1.6.7-3.6,1.1-5.8,1.1-3.3,0-5.9-.8-7.8-2.4-2-1.6-2.9-3.7-2.9-6.2s.9-4.6,2.8-6.2,4.8-2.3,8.9-2.3h8.4v-1c0-2.3-.7-4-2-5.2-1.3-1.2-3.3-1.8-5.8-1.8s-3.4.3-5.1.8-3,1.3-4.2,2.3l-2.2-4c1.5-1.2,3.3-2.1,5.4-2.8,2.1-.6,4.3-1,6.7-1,4,0,7.1,1,9.3,3h0ZM981.9,66.4c1.5-.9,2.5-2.2,3.2-3.8v-4.1h-8.1c-4.5,0-6.7,1.5-6.7,4.5s.6,2.6,1.7,3.5c1.1.8,2.7,1.3,4.7,1.3s3.8-.4,5.2-1.3h0Z"/>
        <path class="st0" d="M1025.6,30.6v40.8h-5.1v-4.6c-1.2,1.6-2.7,2.8-4.5,3.7-1.8.8-3.8,1.3-5.9,1.3s-5.3-.6-7.6-1.9c-2.2-1.2-4-3-5.2-5.2s-1.9-4.8-1.9-7.8.6-5.5,1.9-7.8c1.3-2.2,3-4,5.2-5.2,2.2-1.2,4.8-1.9,7.6-1.9s4,.4,5.8,1.2c1.8.8,3.2,2,4.4,3.5v-16h5.3ZM1015.6,65.9c1.5-.9,2.7-2.1,3.5-3.6s1.3-3.3,1.3-5.4-.4-3.8-1.3-5.4-2-2.8-3.5-3.6-3.2-1.3-5-1.3-3.5.4-5,1.3c-1.5.8-2.7,2-3.5,3.6-.9,1.6-1.3,3.3-1.3,5.4s.4,3.8,1.3,5.4,2,2.8,3.5,3.6,3.2,1.3,5,1.3,3.5-.4,5-1.3Z"/>
        <path class="st0" d="M1038.1,69.9c-2.3-1.3-4.1-3.1-5.4-5.3s-1.9-4.8-1.9-7.7.7-5.4,1.9-7.7,3.1-4,5.4-5.3,4.9-1.9,7.8-1.9,5.5.6,7.8,1.9c2.3,1.3,4.1,3,5.4,5.3s1.9,4.8,1.9,7.7-.7,5.4-1.9,7.7-3.1,4-5.4,5.3c-2.3,1.3-4.9,1.9-7.8,1.9s-5.5-.6-7.8-1.9ZM1050.9,65.9c1.5-.9,2.7-2.1,3.5-3.6s1.3-3.3,1.3-5.4-.4-3.8-1.3-5.4-2-2.8-3.5-3.6c-1.5-.8-3.2-1.3-5-1.3s-3.6.4-5,1.3-2.7,2-3.5,3.6c-.9,1.6-1.3,3.3-1.3,5.4s.4,3.8,1.3,5.4,2,2.8,3.5,3.6,3.2,1.3,5,1.3,3.5-.4,5-1.3Z"/>
        <path class="st0" d="M1104.9,58.6h-23.6c.3,2.6,1.5,4.6,3.4,6.2,1.9,1.6,4.3,2.3,7.2,2.3s6.3-1.2,8.4-3.5l2.9,3.4c-1.3,1.5-3,2.7-4.9,3.5-2,.8-4.2,1.2-6.6,1.2s-5.8-.6-8.2-1.9c-2.4-1.3-4.2-3-5.5-5.3-1.3-2.3-1.9-4.8-1.9-7.7s.6-5.4,1.9-7.6c1.3-2.3,3-4,5.2-5.3,2.2-1.3,4.7-1.9,7.5-1.9s5.3.6,7.4,1.9c2.2,1.3,3.9,3,5.1,5.3,1.2,2.3,1.8,4.9,1.8,7.8s0,.9-.1,1.6h0ZM1084.3,48.8c-1.7,1.5-2.7,3.6-3,6h18.7c-.3-2.5-1.3-4.5-3-6-1.7-1.6-3.8-2.3-6.3-2.3s-4.7.8-6.3,2.3Z"/>
        <path class="st0" d="M1134.6,45.2c2.2,2.2,3.3,5.3,3.3,9.4v16.8h-5.3v-16.2c0-2.8-.7-5-2-6.4-1.4-1.4-3.3-2.1-5.8-2.1s-5.1.8-6.8,2.5-2.5,4.1-2.5,7.2v15h-5.3v-29.1h5.1v4.4c1.1-1.5,2.5-2.7,4.3-3.5s3.9-1.2,6.2-1.2c3.7,0,6.6,1.1,8.8,3.2h0Z"/>
        <path class="st0" d="M1165.6,69.3c-3.1-1.7-5.5-4.1-7.3-7s-2.6-6.3-2.6-10.1.9-7.1,2.6-10.1,4.2-5.3,7.3-7,6.6-2.6,10.4-2.6,5.8.5,8.2,1.5c2.5,1,4.6,2.5,6.4,4.5l-3.6,3.5c-2.9-3-6.5-4.6-10.8-4.6s-5.4.6-7.8,1.9-4.1,3-5.4,5.3c-1.3,2.2-1.9,4.8-1.9,7.6s.7,5.3,1.9,7.6c1.3,2.2,3.1,4,5.4,5.3s4.9,1.9,7.8,1.9c4.3,0,7.9-1.5,10.8-4.6l3.6,3.5c-1.8,2-3.9,3.5-6.4,4.5s-5.3,1.5-8.3,1.5-7.3-.8-10.4-2.6h0Z"/>
        <path class="st0" d="M1199,69.9c-2.3-1.3-4.1-3.1-5.4-5.3s-1.9-4.8-1.9-7.7.7-5.4,1.9-7.7,3.1-4,5.4-5.3,4.9-1.9,7.8-1.9,5.5.6,7.8,1.9c2.3,1.3,4.1,3,5.4,5.3s1.9,4.8,1.9,7.7-.7,5.4-1.9,7.7-3.1,4-5.4,5.3c-2.3,1.3-4.9,1.9-7.8,1.9s-5.5-.6-7.8-1.9ZM1211.9,65.9c1.5-.9,2.7-2.1,3.5-3.6s1.3-3.3,1.3-5.4-.4-3.8-1.3-5.4-2-2.8-3.5-3.6c-1.5-.8-3.2-1.3-5-1.3s-3.6.4-5,1.3-2.7,2-3.5,3.6c-.9,1.6-1.3,3.3-1.3,5.4s.4,3.8,1.3,5.4,2,2.8,3.5,3.6,3.2,1.3,5,1.3,3.5-.4,5-1.3Z"/>
        <path class="st0" d="M1251.4,45.2c2.2,2.2,3.3,5.3,3.3,9.4v16.8h-5.3v-16.2c0-2.8-.7-5-2-6.4-1.4-1.4-3.3-2.1-5.8-2.1s-5.1.8-6.8,2.5-2.5,4.1-2.5,7.2v15h-5.3v-29.1h5.1v4.4c1.1-1.5,2.5-2.7,4.3-3.5s3.9-1.2,6.2-1.2c3.7,0,6.6,1.1,8.8,3.2h0Z"/>
        <path class="st0" d="M1255,82c-1.1-.3-2-.7-2.8-1.3l1.7-4.1c1.1.9,2.5,1.4,4.3,1.4s2.5-.4,3.2-1.3c.8-.9,1.1-2.1,1.1-3.8v-30.6h5.3v30.5c0,3-.8,5.4-2.4,7.1-1.6,1.7-3.9,2.6-6.9,2.6s-2.5-.2-3.6-.4h0ZM1262.7,35.7c-.7-.7-1-1.5-1-2.4s.3-1.8,1-2.5,1.5-1,2.6-1,1.9.3,2.6,1,1,1.4,1,2.4-.3,1.8-1,2.5-1.5,1-2.6,1-1.9-.3-2.6-1h0Z"/>
        <path class="st0" d="M1302.9,42.3v29.1h-5v-4.4c-1.1,1.5-2.5,2.7-4.2,3.5-1.7.8-3.6,1.2-5.7,1.2-3.9,0-6.9-1.1-9.2-3.2-2.2-2.1-3.3-5.3-3.3-9.5v-16.8h5.3v16.2c0,2.8.7,5,2,6.4s3.3,2.2,5.8,2.2,5-.8,6.6-2.5c1.6-1.7,2.4-4.1,2.4-7.2v-15.1h5.3,0Z"/>
        <path class="st0" d="M1335.1,45.2c2.2,2.2,3.3,5.3,3.3,9.4v16.8h-5.3v-16.2c0-2.8-.7-5-2-6.4-1.4-1.4-3.3-2.1-5.8-2.1s-5.1.8-6.8,2.5-2.5,4.1-2.5,7.2v15h-5.3v-29.1h5.1v4.4c1.1-1.5,2.5-2.7,4.3-3.5s3.9-1.2,6.2-1.2c3.7,0,6.6,1.1,8.8,3.2h0Z"/>
        <path class="st0" d="M1362.4,69.8c-.8.7-1.7,1.2-2.9,1.5s-2.3.5-3.5.5c-2.9,0-5.2-.8-6.8-2.4-1.6-1.6-2.4-3.8-2.4-6.8v-16h-4.9v-4.3h4.9v-6.4h5.3v6.4h8.4v4.3h-8.4v15.8c0,1.6.4,2.8,1.2,3.6s1.9,1.3,3.4,1.3,3-.5,4.1-1.4l1.7,3.8h0Z"/>
        <path class="st0" d="M1370.2,69.9c-2.3-1.3-4.1-3.1-5.4-5.3s-1.9-4.8-1.9-7.7.7-5.4,1.9-7.7,3.1-4,5.4-5.3,4.9-1.9,7.8-1.9,5.5.6,7.8,1.9c2.3,1.3,4.1,3,5.4,5.3s1.9,4.8,1.9,7.7-.7,5.4-1.9,7.7-3.1,4-5.4,5.3c-2.3,1.3-4.9,1.9-7.8,1.9s-5.5-.6-7.8-1.9ZM1383.1,65.9c1.5-.9,2.7-2.1,3.5-3.6s1.3-3.3,1.3-5.4-.4-3.8-1.3-5.4-2-2.8-3.5-3.6c-1.5-.8-3.2-1.3-5-1.3s-3.6.4-5,1.3-2.7,2-3.5,3.6c-.9,1.6-1.3,3.3-1.3,5.4s.4,3.8,1.3,5.4,2,2.8,3.5,3.6,3.2,1.3,5,1.3,3.5-.4,5-1.3Z"/>
        <path class="st0" d="M1415.6,69.9c-2.3-1.3-4.2-3.1-5.5-5.3-1.3-2.2-2-4.8-2-7.7s.7-5.4,2-7.7,3.1-4,5.5-5.3c2.3-1.3,5-1.9,7.9-1.9s5,.5,7.1,1.6c2.1,1.1,3.7,2.6,4.8,4.6l-4,2.6c-.9-1.4-2.1-2.4-3.4-3.1-1.3-.7-2.9-1-4.5-1s-3.6.4-5.1,1.3-2.7,2-3.6,3.6c-.9,1.6-1.3,3.3-1.3,5.4s.4,3.9,1.3,5.4,2.1,2.8,3.6,3.6c1.5.8,3.2,1.3,5.1,1.3s3.2-.3,4.5-1c1.4-.7,2.5-1.7,3.4-3.1l4,2.5c-1.1,2-2.7,3.6-4.8,4.7s-4.4,1.6-7.1,1.6-5.6-.6-7.9-1.9h0Z"/>
        <path class="st0" d="M1444.3,69.9c-2.3-1.3-4.1-3.1-5.4-5.3s-1.9-4.8-1.9-7.7.7-5.4,1.9-7.7,3.1-4,5.4-5.3,4.9-1.9,7.8-1.9,5.5.6,7.8,1.9c2.3,1.3,4.1,3,5.4,5.3s1.9,4.8,1.9,7.7-.7,5.4-1.9,7.7-3.1,4-5.4,5.3c-2.3,1.3-4.9,1.9-7.8,1.9s-5.5-.6-7.8-1.9ZM1457.1,65.9c1.5-.9,2.7-2.1,3.5-3.6s1.3-3.3,1.3-5.4-.4-3.8-1.3-5.4-2-2.8-3.5-3.6c-1.5-.8-3.2-1.3-5-1.3s-3.6.4-5,1.3-2.7,2-3.5,3.6c-.9,1.6-1.3,3.3-1.3,5.4s.4,3.8,1.3,5.4,2,2.8,3.5,3.6,3.2,1.3,5,1.3,3.5-.4,5-1.3Z"/>
        <path class="st0" d="M1496.7,45.2c2.2,2.2,3.3,5.3,3.3,9.4v16.8h-5.3v-16.2c0-2.8-.7-5-2-6.4-1.4-1.4-3.3-2.1-5.8-2.1s-5.1.8-6.8,2.5-2.5,4.1-2.5,7.2v15h-5.3v-29.1h5.1v4.4c1.1-1.5,2.5-2.7,4.3-3.5s3.9-1.2,6.2-1.2c3.7,0,6.6,1.1,8.8,3.2h0Z"/>
      </g>
    </g>
  </g>
</svg>