<?xml version="1.0" encoding="UTF-8"?>
<svg id="Layer_1" data-name="Layer 1" xmlns="http://www.w3.org/2000/svg" xmlns:xlink="http://www.w3.org/1999/xlink" viewBox="0 0 900 300">
  <defs>
    <style>
      .cls-1 {
        stroke: #fff;
        stroke-miterlimit: 3.21;
        stroke-width: 5.62px;
      }

      .cls-1, .cls-2 {
        fill: none;
      }

      .cls-3 {
        fill: #fff;
      }

      .cls-4 {
        clip-path: url(#clippath-1);
      }

      .cls-5 {
        clip-path: url(#clippath);
      }
    </style>
    <clipPath id="clippath">
      <rect class="cls-2" x="852" y="74.67" width="27.68" height="29.33"/>
    </clipPath>
    <clipPath id="clippath-1">
      <rect class="cls-2" x="852" y="74.67" width="28" height="29.33"/>
    </clipPath>
  </defs>
  <path class="cls-3" d="M26.4,19.66h20.88c1.58,0,3.07.18,4.46.54,1.4.36,2.67.88,3.79,1.54,1.14.66,2.11,1.45,2.94,2.38.82.92,1.45,1.94,1.9,3.06.44,1.13.67,2.33.67,3.63s-.22,2.45-.65,3.54c-.43,1.1-1.04,2.08-1.81,2.94-.77.85-1.68,1.55-2.75,2.1-1.06.54-2.21.89-3.46,1.04,1.53.14,2.93.5,4.21,1.08,1.29.57,2.4,1.33,3.33,2.27.94.95,1.67,2.03,2.17,3.25.51,1.22.77,2.56.77,4,0,1.35-.23,2.61-.69,3.79-.45,1.18-1.1,2.24-1.96,3.19-.85.95-1.87,1.76-3.06,2.44-1.2.67-2.54,1.19-4.02,1.56-1.47.36-3.06.54-4.77.54h-21.94V19.66ZM46.96,38.18c1.17,0,2.23-.15,3.19-.46.96-.32,1.78-.76,2.46-1.33.69-.58,1.23-1.28,1.6-2.08.38-.82.56-1.72.56-2.71,0-1.26-.32-2.34-.96-3.25-.63-.9-1.52-1.59-2.69-2.08-1.17-.5-2.57-.75-4.21-.75h-14.21v12.67h14.25ZM32.71,56.7h14.71c6.11,0,9.17-2.17,9.17-6.5,0-2.18-.76-3.8-2.27-4.85-1.5-1.07-3.79-1.6-6.88-1.6h-14.73v12.96Z"/>
  <path class="cls-3" d="M75.38,62.56h-6.54l15.98-42.9h9.46l15.77,42.9h-6.69l-3.92-10.75h-20.08l-3.98,10.75ZM81.47,46.1h15.9l-7.88-21.67-8.02,21.67Z"/>
  <path class="cls-3" d="M124.23,62.56h-6.31V19.66h20.77c1.71,0,3.3.2,4.77.6,1.48.39,2.82.96,4.02,1.71,1.19.75,2.21,1.65,3.06,2.69.86,1.03,1.51,2.19,1.96,3.48.46,1.28.69,2.67.69,4.17,0,1.64-.28,3.14-.83,4.5-.56,1.35-1.36,2.52-2.42,3.5-1.04.97-2.29,1.74-3.75,2.29-1.46.54-3.09.83-4.9.88,1.58.14,3,.78,4.25,1.92,1.25,1.14,2.34,2.75,3.27,4.83l5.54,12.33h-6.92l-5.52-12.33c-.36-.8-.78-1.48-1.25-2.04-.47-.55-1.04-1-1.69-1.33-.64-.34-1.41-.59-2.31-.73-.91-.15-1.98-.23-3.23-.23h-9.21v16.67ZM124.23,40.03h13.65c1.89,0,3.5-.29,4.83-.88,1.34-.59,2.38-1.45,3.1-2.56.72-1.11,1.08-2.44,1.08-3.98s-.35-2.82-1.06-3.88c-.71-1.05-1.74-1.85-3.08-2.4-1.33-.55-2.97-.83-4.92-.83h-13.6v14.52Z"/>
  <path class="cls-3" d="M169.65,62.56h-6.31V19.66h20.77c1.71,0,3.3.2,4.77.6,1.48.39,2.82.96,4.02,1.71,1.19.75,2.21,1.65,3.06,2.69.86,1.03,1.51,2.19,1.96,3.48.46,1.28.69,2.67.69,4.17,0,1.64-.28,3.14-.83,4.5-.56,1.35-1.36,2.52-2.42,3.5-1.04.97-2.29,1.74-3.75,2.29-1.46.54-3.09.83-4.9.88,1.58.14,3,.78,4.25,1.92,1.25,1.14,2.34,2.75,3.27,4.83l5.54,12.33h-6.92l-5.52-12.33c-.36-.8-.78-1.48-1.25-2.04-.47-.55-1.04-1-1.69-1.33-.64-.34-1.41-.59-2.31-.73-.91-.15-1.98-.23-3.23-.23h-9.21v16.67ZM169.65,40.03h13.65c1.89,0,3.5-.29,4.83-.88,1.34-.59,2.38-1.45,3.1-2.56.72-1.11,1.08-2.44,1.08-3.98s-.35-2.82-1.06-3.88c-.71-1.05-1.74-1.85-3.08-2.4-1.33-.55-2.97-.83-4.92-.83h-13.6v14.52Z"/>
  <path class="cls-3" d="M213.28,62.56h-6.54l15.98-42.9h9.46l15.77,42.9h-6.69l-3.92-10.75h-20.08l-3.98,10.75ZM219.36,46.1h15.9l-7.88-21.67-8.02,21.67Z"/>
  <path class="cls-3" d="M293.9,19.66v42.9h-10.23l-21.71-38.85v38.85h-6.15V19.66h11.13l20.81,37.25V19.66h6.15Z"/>
  <path class="cls-3" d="M309.64,41.12c0,2.57.31,4.88.94,6.92.64,2.03,1.55,3.76,2.75,5.19,1.21,1.43,2.67,2.52,4.4,3.27,1.73.74,3.69,1.1,5.85,1.1,3.53,0,6.39-.98,8.58-2.96,2.19-1.98,3.66-4.9,4.4-8.73h6.29c-.45,2.74-1.22,5.19-2.31,7.35-1.1,2.17-2.49,4.01-4.17,5.52-1.67,1.52-3.58,2.68-5.73,3.48-2.16.79-4.52,1.19-7.08,1.19-2.41,0-4.64-.35-6.71-1.04-2.07-.69-3.94-1.69-5.6-2.98-1.66-1.3-3.07-2.88-4.25-4.71-1.18-1.83-2.08-3.9-2.71-6.19s-.94-4.76-.94-7.42.31-5.14.94-7.42c.63-2.29,1.53-4.35,2.71-6.19,1.18-1.84,2.59-3.42,4.25-4.71,1.67-1.3,3.53-2.3,5.6-3,2.07-.69,4.3-1.04,6.71-1.04,2.57,0,4.93.41,7.08,1.21,2.15.79,4.06,1.95,5.73,3.48,1.68,1.52,3.07,3.35,4.17,5.52,1.09,2.16,1.86,4.6,2.31,7.33h-6.29c-.74-3.82-2.2-6.72-4.4-8.71-2.2-1.98-5.06-2.98-8.58-2.98-2.17,0-4.12.38-5.85,1.13-1.72.75-3.19,1.84-4.4,3.27-1.2,1.42-2.11,3.15-2.75,5.19-.63,2.03-.94,4.33-.94,6.92Z"/>
  <path class="cls-3" d="M354.26,62.56h-6.54l15.98-42.9h9.46l15.77,42.9h-6.69l-3.92-10.75h-20.08l-3.98,10.75ZM360.35,46.1h15.9l-7.88-21.67-8.02,21.67Z"/>
  <path class="cls-3" d="M412.46,18.76c2.55,0,4.86.32,6.94.96,2.08.64,3.86,1.56,5.35,2.75,1.48,1.2,2.63,2.65,3.42,4.35s1.19,3.64,1.19,5.77h-6.15c0-1.25-.27-2.38-.79-3.38-.52-1-1.25-1.84-2.21-2.54-.96-.71-2.1-1.25-3.42-1.63-1.32-.39-2.78-.58-4.38-.58-1.07,0-2.14.09-3.19.27-1.06.18-2.05.46-2.98.83-.93.36-1.76.83-2.48,1.4-.72.57-1.29,1.24-1.71,2.02-.41.77-.6,1.64-.6,2.63,0,.86.16,1.6.48,2.21.33.6.82,1.1,1.46,1.5.64.41,1.41.74,2.31,1.02.9.28,1.93.52,3.08.73,1.15.21,2.4.42,3.75.63l2.23.31c1.04.17,2.09.35,3.17.54,1.08.18,2.15.41,3.21.67,1.05.27,2.06.6,3.02,1,.97.41,1.86.9,2.69,1.48.82.57,1.53,1.25,2.13,2.04.61.79,1.08,1.72,1.42,2.79.34,1.07.52,2.3.52,3.69,0,1.78-.29,3.39-.85,4.81-.56,1.42-1.37,2.66-2.44,3.71-1.06,1.06-2.32,1.94-3.79,2.65-1.47.7-3.13,1.21-4.96,1.54-1.82.34-3.79.52-5.9.52-2.88,0-5.45-.31-7.73-.94-2.27-.64-4.2-1.57-5.79-2.79-1.6-1.22-2.81-2.71-3.65-4.46-.83-1.76-1.25-3.77-1.25-6.02h6.15c0,1.33.28,2.53.83,3.58.57,1.04,1.39,1.93,2.46,2.67,1.07.74,2.34,1.3,3.83,1.69,1.5.39,3.19.58,5.06.58,1.29,0,2.52-.09,3.69-.29,1.18-.19,2.26-.48,3.25-.88,1-.4,1.86-.9,2.6-1.5.73-.61,1.3-1.32,1.71-2.15.4-.83.6-1.78.6-2.83,0-.96-.17-1.76-.5-2.42-.33-.65-.81-1.19-1.44-1.63-.61-.43-1.35-.78-2.23-1.06-.86-.28-1.83-.51-2.9-.71-1.06-.19-2.2-.39-3.42-.58l-2.79-.42c-1.04-.17-2.1-.34-3.19-.52-1.08-.18-2.16-.4-3.23-.65-1.06-.26-2.07-.58-3.04-.96-.96-.39-1.85-.84-2.67-1.38-.81-.54-1.52-1.19-2.13-1.94-.61-.75-1.08-1.63-1.42-2.63-.33-1.01-.5-2.17-.5-3.48,0-1.72.29-3.27.88-4.65.58-1.39,1.4-2.6,2.46-3.65,1.07-1.04,2.31-1.91,3.73-2.6,1.43-.69,3-1.21,4.71-1.56,1.72-.36,3.51-.54,5.38-.54Z"/>
  <path class="cls-3" d="M25.95,83.19h58.48c4.79,0,9.3.46,13.54,1.38,4.23.92,8.13,2.23,11.69,3.94,3.57,1.71,6.77,3.79,9.6,6.23,2.83,2.43,5.24,5.19,7.23,8.27,1.98,3.08,3.51,6.45,4.56,10.1,1.05,3.64,1.58,7.52,1.58,11.63s-.53,8-1.58,11.67c-1.06,3.66-2.58,7.02-4.56,10.1-1.99,3.08-4.41,5.85-7.25,8.31-2.85,2.45-6.06,4.52-9.63,6.23-3.57,1.71-7.47,3.02-11.71,3.94-4.22.91-8.72,1.35-13.48,1.35h-26.9v39.19h-31.58v-122.33ZM82.97,141.19c2.84,0,5.39-.36,7.63-1.1,2.25-.73,4.15-1.81,5.71-3.23,1.55-1.42,2.73-3.14,3.54-5.17.82-2.04,1.23-4.36,1.23-6.96s-.41-4.86-1.23-6.9c-.81-2.04-1.98-3.76-3.52-5.17-1.54-1.4-3.43-2.47-5.65-3.21-2.22-.73-4.75-1.1-7.58-1.1h-25.56v32.83h25.44Z"/>
  <path class="cls-3" d="M145.61,205.52v-122.38h61.13c7.28,0,13.74.87,19.4,2.6,5.67,1.72,10.44,4.2,14.33,7.42,3.89,3.22,6.84,7.16,8.88,11.79,2.03,4.63,3.04,9.85,3.04,15.67,0,5.04-.8,9.63-2.4,13.75-1.6,4.13-3.88,7.66-6.83,10.6-2.95,2.95-6.51,5.27-10.69,6.96-4.18,1.68-8.86,2.6-14.04,2.77,5.01.35,9.43,2.13,13.25,5.33,3.82,3.21,7.09,7.86,9.83,13.96l14.17,31.52h-35.13l-14.42-31.48c-1.11-2.46-2.17-4.47-3.17-6.04-.99-1.58-2.06-2.83-3.23-3.75-1.16-.92-2.45-1.55-3.9-1.9-1.43-.36-3.16-.54-5.19-.54h-13.46v43.71h-31.58ZM203.28,137.44c2.79,0,5.27-.32,7.44-.98,2.17-.67,3.99-1.63,5.48-2.88,1.48-1.25,2.61-2.79,3.4-4.63.79-1.84,1.19-3.94,1.19-6.29,0-4.67-1.51-8.22-4.52-10.67-3.02-2.46-7.35-3.69-13.02-3.69h-26.04v29.13h26.08Z"/>
  <path class="cls-3" d="M354.12,83.19v26.19h-53.88v22.88h49v24.38h-49v22.73h55.33v26.17h-86.92v-122.33h85.46Z"/>
  <path class="cls-3" d="M515.76,83.19v122.33h-31.56v-95.85l-27.04,95.85h-31.65l-26.85-95.9v95.9h-30.13v-122.33h49.79l24.69,88.21,24.79-88.21h47.96Z"/>
  <path class="cls-3" d="M562.89,205.52h-31.58v-122.33h31.58v122.33Z"/>
  <path class="cls-3" d="M577.58,83.19h31.58v70.75c0,4.85.48,9.02,1.44,12.52.97,3.49,2.4,6.35,4.29,8.6,1.9,2.25,4.25,3.91,7.04,4.98,2.8,1.07,6.01,1.6,9.63,1.6s6.88-.53,9.67-1.6c2.8-1.07,5.15-2.73,7.02-4.98,1.89-2.25,3.31-5.11,4.27-8.6.97-3.5,1.46-7.67,1.46-12.52v-70.75h31.56v73.58c0,8.24-1.33,15.54-3.98,21.92-2.66,6.38-6.37,11.74-11.15,16.1-4.77,4.36-10.45,7.67-17.06,9.92-6.6,2.25-13.86,3.38-21.79,3.38-5.27,0-10.25-.51-14.96-1.52-4.71-1.02-9.07-2.5-13.08-4.46-4-1.97-7.6-4.41-10.79-7.31-3.2-2.92-5.92-6.28-8.17-10.08-2.25-3.8-3.98-8.03-5.19-12.69-1.2-4.67-1.79-9.75-1.79-15.25v-73.58Z"/>
  <path class="cls-3" d="M847.48,83.19v122.33h-31.56v-95.85l-27.04,95.85h-31.65l-26.85-95.9v95.9h-30.13v-122.33h49.79l24.69,88.21,24.79-88.21h47.96Z"/>
  <path class="cls-1" d="M451.99,42.98h393.75"/>
  <g class="cls-5">
    <g class="cls-4">
      <path class="cls-3" d="M866.14,76.21c1.13,0,2.2.14,3.23.42,1.03.28,1.98.68,2.88,1.19.89.5,1.69,1.11,2.4,1.83.72.71,1.33,1.51,1.83,2.4.51.89.91,1.85,1.19,2.88.28,1.03.42,2.1.42,3.23s-.14,2.23-.42,3.27c-.28,1.04-.68,2.02-1.21,2.92-.52.91-1.14,1.72-1.88,2.46-.72.72-1.54,1.34-2.44,1.85-.89.53-1.85.93-2.9,1.21-1.03.29-2.11.44-3.25.44s-2.2-.15-3.23-.44c-1.03-.28-1.99-.68-2.88-1.19-.89-.52-1.7-1.13-2.42-1.85-.72-.72-1.34-1.53-1.85-2.42-.52-.89-.91-1.84-1.19-2.88-.28-1.04-.42-2.13-.42-3.25s.14-2.22.42-3.25c.28-1.03.67-1.98,1.19-2.88.53-.9,1.15-1.71,1.88-2.44.73-.73,1.55-1.36,2.46-1.88.9-.53,1.88-.93,2.92-1.21,1.04-.28,2.13-.42,3.27-.42ZM866.12,78.33c-.95,0-1.84.11-2.69.33-.85.22-1.64.54-2.35.96-.72.42-1.38.93-1.96,1.52-.58.6-1.08,1.27-1.5,2-.41.74-.72,1.54-.94,2.4-.22.85-.33,1.75-.33,2.71s.1,1.87.31,2.73c.22.85.53,1.64.94,2.38.42.74.91,1.41,1.48,2,.58.58,1.23,1.09,1.94,1.52.71.42,1.48.74,2.31.96s1.71.33,2.63.33,1.82-.11,2.67-.33c.84-.23,1.63-.57,2.35-1,.72-.43,1.38-.94,1.96-1.54.58-.61,1.08-1.28,1.5-2.02.42-.75.73-1.56.96-2.44.22-.88.33-1.79.33-2.75s-.11-1.84-.33-2.69c-.21-.84-.52-1.63-.92-2.35-.41-.72-.89-1.38-1.46-1.96-.57-.58-1.22-1.07-1.94-1.48-.71-.42-1.48-.73-2.31-.94-.83-.22-1.72-.33-2.65-.33ZM863.92,93.91h-2.31v-11.1h5.56c.57,0,1.09.08,1.56.25.48.16.9.38,1.25.67.34.29.61.64.81,1.04.19.39.29.83.29,1.31,0,.57-.14,1.07-.4,1.5-.25.42-.61.75-1.08,1-.46.25-.99.39-1.6.4.8.06,1.45.64,1.94,1.75l1.44,3.19h-2.5l-1.42-2.94c-.13-.26-.27-.47-.44-.63-.16-.15-.35-.26-.58-.31-.24-.07-.54-.1-.9-.1h-1.63v3.98ZM863.92,87.73h2.6c.69,0,1.23-.11,1.63-.35.4-.25.6-.59.6-1.02s-.2-.76-.58-.98c-.39-.23-.94-.35-1.65-.35h-2.6v2.71Z"/>
    </g>
  </g>
</svg>