<svg xmlns="http://www.w3.org/2000/svg" xmlns:xlink="http://www.w3.org/1999/xlink" width="1080" zoomAndPan="magnify" viewBox="0 0 810 809.999993" height="1080" preserveAspectRatio="xMidYMid meet" version="1.0"><defs><g/></defs><rect x="-81" width="972" fill="#ffffff" y="-80.999999" height="971.999992" fill-opacity="1"/><rect x="-81" width="972" fill="#db2f21" y="-80.999999" height="971.999992" fill-opacity="1"/><g fill="#ffffff" fill-opacity="1"><g transform="translate(56.484375, 603.91294)"><g><path d="M 10.59375 -174.328125 L 82.90625 -174.328125 L 82.90625 -146.703125 C 82.90625 -133.585938 84.921875 -121.460938 88.953125 -110.328125 C 92.984375 -99.191406 98.640625 -89.585938 105.921875 -81.515625 C 113.210938 -73.453125 121.945312 -67.148438 132.125 -62.609375 C 142.300781 -58.078125 153.484375 -55.8125 165.671875 -55.8125 C 178.046875 -55.8125 189.34375 -58.125 199.5625 -62.75 C 209.78125 -67.382812 218.554688 -73.78125 225.890625 -81.9375 C 233.222656 -90.09375 238.90625 -99.785156 242.9375 -111.015625 C 246.96875 -122.242188 248.984375 -134.457031 248.984375 -147.65625 L 248.984375 -393.203125 L 321.296875 -393.203125 L 321.296875 -147.109375 C 321.296875 -131.253906 319.597656 -116.40625 316.203125 -102.5625 C 312.816406 -88.71875 307.960938 -76.046875 301.640625 -64.546875 C 295.316406 -53.046875 287.59375 -42.78125 278.46875 -33.75 C 269.351562 -24.71875 259.019531 -17.085938 247.46875 -10.859375 C 235.925781 -4.628906 223.320312 0.109375 209.65625 3.359375 C 196 6.617188 181.425781 8.25 165.9375 8.25 C 150.445312 8.25 135.875 6.617188 122.21875 3.359375 C 108.5625 0.109375 95.957031 -4.628906 84.40625 -10.859375 C 72.863281 -17.085938 62.53125 -24.71875 53.40625 -33.75 C 44.289062 -42.78125 36.570312 -53.046875 30.25 -64.546875 C 23.925781 -76.046875 19.066406 -88.71875 15.671875 -102.5625 C 12.285156 -116.40625 10.59375 -131.253906 10.59375 -147.109375 Z M 10.59375 -174.328125 "/></g></g></g><g fill="#ffffff" fill-opacity="1"><g transform="translate(398.963293, 603.91294)"><g><path d="M 21.171875 -393.203125 L 205.40625 -393.203125 C 219.695312 -393.203125 233.191406 -391.78125 245.890625 -388.9375 C 258.585938 -386.101562 270.34375 -382.003906 281.15625 -376.640625 C 291.96875 -371.273438 301.679688 -364.765625 310.296875 -357.109375 C 318.910156 -349.460938 326.242188 -340.867188 332.296875 -331.328125 C 338.347656 -321.796875 342.976562 -311.414062 346.1875 -300.1875 C 349.394531 -288.96875 351 -277.03125 351 -264.375 C 351 -251.726562 349.367188 -239.769531 346.109375 -228.5 C 342.859375 -217.226562 338.207031 -206.800781 332.15625 -197.21875 C 326.113281 -187.644531 318.78125 -179.003906 310.15625 -171.296875 C 301.539062 -163.597656 291.828125 -157.066406 281.015625 -151.703125 C 270.203125 -146.347656 258.445312 -142.226562 245.75 -139.34375 C 233.0625 -136.457031 219.613281 -135.015625 205.40625 -135.015625 L 93.484375 -135.015625 L 93.484375 0 L 21.171875 0 Z M 200.734375 -197.703125 C 212.734375 -197.703125 223.546875 -199.234375 233.171875 -202.296875 C 242.796875 -205.367188 250.972656 -209.789062 257.703125 -215.5625 C 264.441406 -221.34375 269.625 -228.359375 273.25 -236.609375 C 276.875 -244.859375 278.6875 -254.113281 278.6875 -264.375 C 278.6875 -274.550781 276.894531 -283.738281 273.3125 -291.9375 C 269.738281 -300.144531 264.628906 -307.085938 257.984375 -312.765625 C 251.335938 -318.453125 243.25 -322.832031 233.71875 -325.90625 C 224.1875 -328.976562 213.507812 -330.515625 201.6875 -330.515625 L 93.484375 -330.515625 L 93.484375 -197.703125 Z M 200.734375 -197.703125 "/></g></g></g></svg>