<svg xmlns="http://www.w3.org/2000/svg" xmlns:xlink="http://www.w3.org/1999/xlink" width="1080" zoomAndPan="magnify" viewBox="0 0 810 809.999993" height="1080" preserveAspectRatio="xMidYMid meet" version="1.0"><defs><g/></defs><rect x="-81" width="972" fill="#ffffff" y="-80.999999" height="971.999992" fill-opacity="1"/><rect x="-81" width="972" fill="#e939c4" y="-80.999999" height="971.999992" fill-opacity="1"/><g fill="#ffffff" fill-opacity="1"><g transform="translate(25.751955, 603.912947)"><g><path d="M 89.640625 -196.609375 C 89.640625 -174.328125 92.25 -154.457031 97.46875 -137 C 102.695312 -119.539062 110.257812 -104.785156 120.15625 -92.734375 C 130.0625 -80.679688 142.1875 -71.515625 156.53125 -65.234375 C 170.875 -58.953125 187.164062 -55.8125 205.40625 -55.8125 C 234.820312 -55.8125 258.507812 -64.148438 276.46875 -80.828125 C 294.4375 -97.515625 306.445312 -122.359375 312.5 -155.359375 L 384.546875 -155.359375 C 380.597656 -129.878906 373.5625 -107.03125 363.4375 -86.8125 C 353.3125 -66.601562 340.546875 -49.441406 325.140625 -35.328125 C 309.742188 -21.210938 291.941406 -10.421875 271.734375 -2.953125 C 251.523438 4.515625 229.367188 8.25 205.265625 8.25 C 186.753906 8.25 169.25 6.023438 152.75 1.578125 C 136.25 -2.867188 121.007812 -9.257812 107.03125 -17.59375 C 93.050781 -25.9375 80.515625 -36.132812 69.421875 -48.1875 C 58.335938 -60.238281 48.898438 -73.847656 41.109375 -89.015625 C 33.316406 -104.191406 27.359375 -120.804688 23.234375 -138.859375 C 19.109375 -156.910156 17.046875 -176.160156 17.046875 -196.609375 C 17.046875 -217.046875 19.109375 -236.289062 23.234375 -254.34375 C 27.359375 -272.40625 33.316406 -289.019531 41.109375 -304.1875 C 48.898438 -319.351562 58.335938 -332.960938 69.421875 -345.015625 C 80.515625 -357.066406 93.050781 -367.265625 107.03125 -375.609375 C 121.007812 -383.953125 136.25 -390.34375 152.75 -394.78125 C 169.25 -399.226562 186.753906 -401.453125 205.265625 -401.453125 C 229.367188 -401.453125 251.523438 -397.71875 271.734375 -390.25 C 291.941406 -382.78125 309.742188 -371.988281 325.140625 -357.875 C 340.546875 -343.757812 353.3125 -326.59375 363.4375 -306.375 C 373.5625 -286.164062 380.597656 -263.320312 384.546875 -237.84375 L 312.5 -237.84375 C 306.445312 -270.84375 294.4375 -295.679688 276.46875 -312.359375 C 258.507812 -329.046875 234.820312 -337.390625 205.40625 -337.390625 C 187.164062 -337.390625 170.875 -334.25 156.53125 -327.96875 C 142.1875 -321.6875 130.0625 -312.519531 120.15625 -300.46875 C 110.257812 -288.414062 102.695312 -273.660156 97.46875 -256.203125 C 92.25 -238.742188 89.640625 -218.878906 89.640625 -196.609375 Z M 89.640625 -196.609375 "/></g></g></g><g fill="#ffffff" fill-opacity="1"><g transform="translate(429.687408, 603.912947)"><g><path d="M 21.171875 -393.203125 L 205.40625 -393.203125 C 219.695312 -393.203125 233.191406 -391.78125 245.890625 -388.9375 C 258.585938 -386.101562 270.34375 -382.003906 281.15625 -376.640625 C 291.96875 -371.273438 301.679688 -364.765625 310.296875 -357.109375 C 318.910156 -349.460938 326.242188 -340.867188 332.296875 -331.328125 C 338.347656 -321.796875 342.976562 -311.414062 346.1875 -300.1875 C 349.394531 -288.96875 351 -277.03125 351 -264.375 C 351 -251.726562 349.367188 -239.769531 346.109375 -228.5 C 342.859375 -217.226562 338.207031 -206.800781 332.15625 -197.21875 C 326.113281 -187.644531 318.78125 -179.003906 310.15625 -171.296875 C 301.539062 -163.597656 291.828125 -157.066406 281.015625 -151.703125 C 270.203125 -146.347656 258.445312 -142.226562 245.75 -139.34375 C 233.0625 -136.457031 219.613281 -135.015625 205.40625 -135.015625 L 93.484375 -135.015625 L 93.484375 0 L 21.171875 0 Z M 200.734375 -197.703125 C 212.734375 -197.703125 223.546875 -199.234375 233.171875 -202.296875 C 242.796875 -205.367188 250.972656 -209.789062 257.703125 -215.5625 C 264.441406 -221.34375 269.625 -228.359375 273.25 -236.609375 C 276.875 -244.859375 278.6875 -254.113281 278.6875 -264.375 C 278.6875 -274.550781 276.894531 -283.738281 273.3125 -291.9375 C 269.738281 -300.144531 264.628906 -307.085938 257.984375 -312.765625 C 251.335938 -318.453125 243.25 -322.832031 233.71875 -325.90625 C 224.1875 -328.976562 213.507812 -330.515625 201.6875 -330.515625 L 93.484375 -330.515625 L 93.484375 -197.703125 Z M 200.734375 -197.703125 "/></g></g></g></svg>