<svg xmlns="http://www.w3.org/2000/svg" xmlns:xlink="http://www.w3.org/1999/xlink" width="1080" zoomAndPan="magnify" viewBox="0 0 810 809.999993" height="1080" preserveAspectRatio="xMidYMid meet" version="1.0"><defs><g/></defs><rect x="-81" width="972" fill="#ffffff" y="-80.999999" height="971.999992" fill-opacity="1"/><rect x="-81" width="972" fill="#511e62" y="-80.999999" height="971.999992" fill-opacity="1"/><g fill="#ffffff" fill-opacity="1"><g transform="translate(74.906251, 603.912947)"><g><path d="M 289.8125 -393.203125 L 289.8125 -329.40625 L 93.484375 -329.40625 L 93.484375 -227.125 L 273.59375 -227.125 L 273.59375 -165.25 L 93.484375 -165.25 L 93.484375 -63.796875 L 295.046875 -63.796875 L 295.046875 0 L 21.171875 0 L 21.171875 -393.203125 Z M 289.8125 -393.203125 "/></g></g></g><g fill="#ffffff" fill-opacity="1"><g transform="translate(380.538766, 603.912947)"><g><path d="M 21.171875 -393.203125 L 205.40625 -393.203125 C 219.695312 -393.203125 233.191406 -391.78125 245.890625 -388.9375 C 258.585938 -386.101562 270.34375 -382.003906 281.15625 -376.640625 C 291.96875 -371.273438 301.679688 -364.765625 310.296875 -357.109375 C 318.910156 -349.460938 326.242188 -340.867188 332.296875 -331.328125 C 338.347656 -321.796875 342.976562 -311.414062 346.1875 -300.1875 C 349.394531 -288.96875 351 -277.03125 351 -264.375 C 351 -251.726562 349.367188 -239.769531 346.109375 -228.5 C 342.859375 -217.226562 338.207031 -206.800781 332.15625 -197.21875 C 326.113281 -187.644531 318.78125 -179.003906 310.15625 -171.296875 C 301.539062 -163.597656 291.828125 -157.066406 281.015625 -151.703125 C 270.203125 -146.347656 258.445312 -142.226562 245.75 -139.34375 C 233.0625 -136.457031 219.613281 -135.015625 205.40625 -135.015625 L 93.484375 -135.015625 L 93.484375 0 L 21.171875 0 Z M 200.734375 -197.703125 C 212.734375 -197.703125 223.546875 -199.234375 233.171875 -202.296875 C 242.796875 -205.367188 250.972656 -209.789062 257.703125 -215.5625 C 264.441406 -221.34375 269.625 -228.359375 273.25 -236.609375 C 276.875 -244.859375 278.6875 -254.113281 278.6875 -264.375 C 278.6875 -274.550781 276.894531 -283.738281 273.3125 -291.9375 C 269.738281 -300.144531 264.628906 -307.085938 257.984375 -312.765625 C 251.335938 -318.453125 243.25 -322.832031 233.71875 -325.90625 C 224.1875 -328.976562 213.507812 -330.515625 201.6875 -330.515625 L 93.484375 -330.515625 L 93.484375 -197.703125 Z M 200.734375 -197.703125 "/></g></g></g></svg>