<svg xmlns="http://www.w3.org/2000/svg" xmlns:xlink="http://www.w3.org/1999/xlink" width="1080" zoomAndPan="magnify" viewBox="0 0 810 809.999993" height="1080" preserveAspectRatio="xMidYMid meet" version="1.0"><defs><g/></defs><rect x="-81" width="972" fill="#ffffff" y="-80.999999" height="971.999992" fill-opacity="1"/><rect x="-81" width="972" fill="#963825" y="-80.999999" height="971.999992" fill-opacity="1"/><g fill="#ffffff" fill-opacity="1"><g transform="translate(41.496095, 603.912947)"><g><path d="M 215.15625 -393.203125 C 234.40625 -393.203125 252.003906 -390.769531 267.953125 -385.90625 C 283.898438 -381.050781 297.601562 -374.203125 309.0625 -365.359375 C 320.519531 -356.515625 329.410156 -345.90625 335.734375 -333.53125 C 342.054688 -321.15625 345.21875 -307.453125 345.21875 -292.421875 C 345.21875 -280.421875 343.222656 -269.285156 339.234375 -259.015625 C 335.253906 -248.753906 329.6875 -239.726562 322.53125 -231.9375 C 315.382812 -224.144531 306.90625 -217.75 297.09375 -212.75 C 287.289062 -207.757812 276.570312 -204.578125 264.9375 -203.203125 C 279.144531 -201.921875 292.160156 -198.617188 303.984375 -193.296875 C 315.804688 -187.984375 326.023438 -181.0625 334.640625 -172.53125 C 343.253906 -164.007812 349.941406 -154.085938 354.703125 -142.765625 C 359.472656 -131.453125 361.859375 -119.148438 361.859375 -105.859375 C 361.859375 -90.003906 358.441406 -75.566406 351.609375 -62.546875 C 344.785156 -49.535156 335.234375 -38.398438 322.953125 -29.140625 C 310.671875 -19.890625 295.984375 -12.71875 278.890625 -7.625 C 261.796875 -2.539062 242.984375 0 222.453125 0 L 21.171875 0 L 21.171875 -393.203125 Z M 209.390625 -226.578125 C 219.015625 -226.578125 227.742188 -227.859375 235.578125 -230.421875 C 243.410156 -232.984375 250.144531 -236.625 255.78125 -241.34375 C 261.425781 -246.070312 265.78125 -251.800781 268.84375 -258.53125 C 271.914062 -265.269531 273.453125 -272.765625 273.453125 -281.015625 C 273.453125 -288.992188 271.984375 -296.117188 269.046875 -302.390625 C 266.117188 -308.671875 261.878906 -313.988281 256.328125 -318.34375 C 250.785156 -322.695312 244.023438 -325.992188 236.046875 -328.234375 C 228.078125 -330.484375 219.050781 -331.609375 208.96875 -331.609375 L 93.484375 -331.609375 L 93.484375 -226.578125 Z M 215.296875 -61.59375 C 240.234375 -61.59375 258.882812 -66.015625 271.25 -74.859375 C 283.625 -83.703125 289.8125 -97.289062 289.8125 -115.625 C 289.8125 -133.957031 283.644531 -147.5 271.3125 -156.25 C 258.988281 -165 240.363281 -169.375 215.4375 -169.375 L 93.484375 -169.375 L 93.484375 -61.59375 Z M 215.296875 -61.59375 "/></g></g></g><g fill="#ffffff" fill-opacity="1"><g transform="translate(413.947066, 603.912947)"><g><path d="M 21.171875 -393.203125 L 205.40625 -393.203125 C 219.695312 -393.203125 233.191406 -391.78125 245.890625 -388.9375 C 258.585938 -386.101562 270.34375 -382.003906 281.15625 -376.640625 C 291.96875 -371.273438 301.679688 -364.765625 310.296875 -357.109375 C 318.910156 -349.460938 326.242188 -340.867188 332.296875 -331.328125 C 338.347656 -321.796875 342.976562 -311.414062 346.1875 -300.1875 C 349.394531 -288.96875 351 -277.03125 351 -264.375 C 351 -251.726562 349.367188 -239.769531 346.109375 -228.5 C 342.859375 -217.226562 338.207031 -206.800781 332.15625 -197.21875 C 326.113281 -187.644531 318.78125 -179.003906 310.15625 -171.296875 C 301.539062 -163.597656 291.828125 -157.066406 281.015625 -151.703125 C 270.203125 -146.347656 258.445312 -142.226562 245.75 -139.34375 C 233.0625 -136.457031 219.613281 -135.015625 205.40625 -135.015625 L 93.484375 -135.015625 L 93.484375 0 L 21.171875 0 Z M 200.734375 -197.703125 C 212.734375 -197.703125 223.546875 -199.234375 233.171875 -202.296875 C 242.796875 -205.367188 250.972656 -209.789062 257.703125 -215.5625 C 264.441406 -221.34375 269.625 -228.359375 273.25 -236.609375 C 276.875 -244.859375 278.6875 -254.113281 278.6875 -264.375 C 278.6875 -274.550781 276.894531 -283.738281 273.3125 -291.9375 C 269.738281 -300.144531 264.628906 -307.085938 257.984375 -312.765625 C 251.335938 -318.453125 243.25 -322.832031 233.71875 -325.90625 C 224.1875 -328.976562 213.507812 -330.515625 201.6875 -330.515625 L 93.484375 -330.515625 L 93.484375 -197.703125 Z M 200.734375 -197.703125 "/></g></g></g></svg>