<?xml version="1.0" encoding="UTF-8"?>
<svg id="Layer_1" data-name="Layer 1" xmlns="http://www.w3.org/2000/svg" xmlns:xlink="http://www.w3.org/1999/xlink" viewBox="0 0 900 300">
  <defs>
    <style>
      .cls-1 {
        clip-path: url(#clippath-6);
      }

      .cls-2 {
        clip-path: url(#clippath-7);
      }

      .cls-3 {
        clip-path: url(#clippath-4);
      }

      .cls-4 {
        stroke: #fff;
        stroke-miterlimit: 3.23;
        stroke-width: 5.66px;
      }

      .cls-4, .cls-5 {
        fill: none;
      }

      .cls-6 {
        fill: #fff;
      }

      .cls-7 {
        clip-path: url(#clippath-1);
      }

      .cls-8 {
        clip-path: url(#clippath-5);
      }

      .cls-9 {
        clip-path: url(#clippath-3);
      }

      .cls-10 {
        clip-path: url(#clippath-2);
      }

      .cls-11 {
        clip-path: url(#clippath);
      }
    </style>
    <clipPath id="clippath">
      <rect class="cls-5" x="20" y="16.64" width="233.33" height="58.03"/>
    </clipPath>
    <clipPath id="clippath-1">
      <rect class="cls-5" x="20" y="16" width="233.33" height="58.67"/>
    </clipPath>
    <clipPath id="clippath-2">
      <rect class="cls-5" x="17.92" y="77.33" width="843.41" height="161.33"/>
    </clipPath>
    <clipPath id="clippath-3">
      <rect class="cls-5" x="17.33" y="77.33" width="844" height="161.33"/>
    </clipPath>
    <clipPath id="clippath-4">
      <rect class="cls-5" x="236" y="16.64" width="645.33" height="58.03"/>
    </clipPath>
    <clipPath id="clippath-5">
      <rect class="cls-5" x="854.67" y="73.33" width="28.85" height="29.33"/>
    </clipPath>
    <clipPath id="clippath-6">
      <rect class="cls-5" x="854.67" y="73.33" width="29.33" height="29.33"/>
    </clipPath>
    <clipPath id="clippath-7">
      <rect class="cls-5" x="856" y="73.6" width="25.33" height="25.07"/>
    </clipPath>
  </defs>
  <g class="cls-11">
    <g class="cls-7">
      <g>
        <path class="cls-6" d="M29.6,40.17c0,2.6.32,4.93.96,6.98.64,2.04,1.56,3.78,2.77,5.21,1.21,1.43,2.68,2.53,4.42,3.29,1.73.75,3.69,1.13,5.88,1.13,3.55,0,6.44-1,8.65-3s3.68-4.92,4.42-8.77h6.33c-.45,2.75-1.22,5.22-2.33,7.4-1.1,2.18-2.49,4.04-4.17,5.56-1.68,1.53-3.61,2.7-5.79,3.5-2.17.79-4.54,1.19-7.13,1.19-2.42,0-4.67-.35-6.75-1.04s-3.96-1.69-5.63-3c-1.67-1.32-3.1-2.9-4.29-4.73-1.18-1.84-2.09-3.92-2.73-6.23-.64-2.3-.96-4.8-.96-7.48s.32-5.17.96-7.48c.64-2.3,1.55-4.38,2.73-6.21,1.19-1.84,2.63-3.42,4.29-4.73,1.67-1.32,3.54-2.32,5.63-3.02,2.08-.71,4.33-1.06,6.75-1.06,2.58,0,4.96.41,7.13,1.21,2.18.81,4.11,1.97,5.79,3.5,1.68,1.53,3.07,3.39,4.17,5.56,1.11,2.18,1.89,4.65,2.33,7.4h-6.33c-.74-3.84-2.21-6.77-4.42-8.77s-5.09-3-8.65-3c-2.18,0-4.14.39-5.88,1.15-1.74.75-3.21,1.84-4.42,3.27-1.21,1.43-2.14,3.18-2.77,5.23-.64,2.04-.96,4.36-.96,6.96Z"/>
        <path class="cls-6" d="M72.37,40.17c0-2.68.32-5.17.96-7.48.64-2.3,1.55-4.38,2.73-6.21,1.19-1.84,2.63-3.42,4.29-4.73,1.67-1.32,3.54-2.32,5.63-3.02,2.09-.71,4.36-1.06,6.79-1.06s4.67.35,6.75,1.06c2.09.7,3.98,1.7,5.65,3.02,1.68,1.31,3.11,2.89,4.29,4.73,1.19,1.83,2.1,3.91,2.73,6.21.64,2.31.96,4.8.96,7.48s-.32,5.18-.96,7.48c-.63,2.31-1.54,4.39-2.73,6.23-1.18,1.83-2.61,3.41-4.29,4.73-1.67,1.31-3.55,2.31-5.65,3-2.08.69-4.33,1.04-6.75,1.04s-4.7-.35-6.79-1.04c-2.08-.69-3.96-1.69-5.63-3-1.67-1.32-3.1-2.9-4.29-4.73-1.18-1.84-2.09-3.92-2.73-6.23-.64-2.3-.96-4.8-.96-7.48ZM78.72,40.17c0,2.6.32,4.93.96,6.98.64,2.04,1.56,3.78,2.77,5.21,1.21,1.43,2.68,2.53,4.42,3.29,1.73.75,3.7,1.13,5.9,1.13s4.14-.38,5.88-1.13c1.73-.76,3.21-1.86,4.42-3.29,1.22-1.43,2.15-3.17,2.79-5.21.64-2.05.96-4.38.96-6.98s-.32-4.92-.96-6.96c-.64-2.05-1.57-3.8-2.79-5.23-1.21-1.43-2.68-2.52-4.42-3.27-1.74-.76-3.7-1.15-5.88-1.15s-4.16.39-5.9,1.15c-1.74.75-3.21,1.84-4.42,3.27-1.21,1.43-2.14,3.18-2.77,5.23-.64,2.04-.96,4.36-.96,6.96Z"/>
        <path class="cls-6" d="M128.97,61.76h-6.33V18.59h20.9c1.72,0,3.32.2,4.81.6,1.48.39,2.82.96,4.02,1.71,1.21.75,2.24,1.66,3.1,2.71.86,1.04,1.52,2.21,1.98,3.5s.69,2.69.69,4.19c0,1.66-.29,3.16-.85,4.52-.56,1.36-1.36,2.54-2.42,3.52-1.04.99-2.3,1.76-3.77,2.31-1.47.56-3.11.85-4.92.9,1.58.14,3,.79,4.25,1.94,1.26,1.14,2.36,2.76,3.31,4.85l5.56,12.42h-6.96l-5.56-12.42c-.36-.8-.78-1.48-1.25-2.04-.47-.57-1.04-1.02-1.69-1.35-.66-.34-1.44-.59-2.35-.75-.91-.15-1.98-.23-3.23-.23h-9.29v16.79ZM128.97,39.09h13.75c1.9,0,3.53-.3,4.88-.9,1.36-.59,2.4-1.45,3.13-2.56.72-1.13,1.08-2.46,1.08-4.02s-.35-2.82-1.06-3.88c-.71-1.07-1.74-1.88-3.1-2.44-1.35-.55-3-.83-4.96-.83h-13.71v14.63Z"/>
        <path class="cls-6" d="M168.34,18.59h29.17v5.88h-22.83v12.81h21.02v5.88h-21.02v12.71h23.44v5.9h-29.77V18.59Z"/>
        <path class="cls-6" d="M211.32,61.76h-6.58l16.1-43.17h9.5l15.88,43.17h-6.73l-3.94-10.81h-20.23l-4,10.81ZM217.45,45.19h16l-7.94-21.81-8.06,21.81Z"/>
      </g>
    </g>
  </g>
  <g class="cls-10">
    <g class="cls-9">
      <g>
        <path class="cls-6" d="M23.25,81.51h58.85c4.82,0,9.35.46,13.6,1.38,4.26.92,8.19,2.24,11.77,3.96,3.59,1.72,6.82,3.81,9.67,6.27,2.86,2.45,5.28,5.22,7.27,8.31,2,3.1,3.53,6.49,4.58,10.17,1.07,3.67,1.6,7.57,1.6,11.71s-.54,8.04-1.6,11.73c-1.06,3.68-2.58,7.08-4.58,10.19-1.99,3.1-4.42,5.89-7.29,8.35-2.86,2.46-6.09,4.55-9.69,6.27-3.58,1.72-7.51,3.04-11.77,3.96-4.25.92-8.77,1.38-13.56,1.38h-27.08v39.44h-31.77v-123.1ZM80.63,139.87c2.88,0,5.44-.36,7.69-1.1,2.25-.75,4.16-1.83,5.73-3.25,1.57-1.43,2.76-3.17,3.56-5.21.82-2.05,1.23-4.39,1.23-7s-.41-4.9-1.23-6.96c-.81-2.05-1.99-3.78-3.54-5.19-1.56-1.4-3.45-2.48-5.69-3.23-2.24-.75-4.77-1.13-7.6-1.13h-25.75v33.06h25.6Z"/>
        <path class="cls-6" d="M143.68,204.62v-123.17h61.52c7.32,0,13.82.87,19.52,2.6,5.69,1.74,10.5,4.23,14.42,7.48,3.92,3.24,6.89,7.19,8.92,11.85,2.04,4.67,3.06,9.93,3.06,15.77,0,5.08-.81,9.7-2.42,13.85-1.6,4.14-3.89,7.7-6.85,10.67s-6.56,5.31-10.77,7c-4.2,1.7-8.91,2.63-14.13,2.79,5.05.35,9.5,2.14,13.33,5.38,3.84,3.22,7.15,7.91,9.92,14.04l14.25,31.73h-35.35l-14.5-31.69c-1.13-2.46-2.19-4.48-3.19-6.08-1-1.59-2.08-2.85-3.25-3.77s-2.47-1.55-3.92-1.92c-1.45-.36-3.19-.54-5.23-.54h-13.56v44h-31.77ZM201.71,136.09c2.82,0,5.32-.33,7.5-1,2.18-.67,4.01-1.63,5.5-2.88,1.5-1.26,2.64-2.82,3.42-4.67.79-1.86,1.19-3.96,1.19-6.31,0-4.71-1.52-8.3-4.54-10.77-3.02-2.47-7.39-3.71-13.1-3.71h-26.21v29.33h26.25Z"/>
        <path class="cls-6" d="M353.52,81.51v26.33h-54.23v23.04h49.33v24.52h-49.33v22.85h55.71v26.35h-87.48v-123.1h86Z"/>
        <path class="cls-6" d="M516.19,81.51v123.1h-31.77v-96.46l-27.21,96.46h-31.85l-27.02-96.52v96.52h-30.31v-123.1h50.1l24.83,88.75,24.98-88.75h48.25Z"/>
        <path class="cls-6" d="M563.62,204.62h-31.77v-123.1h31.77v123.1Z"/>
        <path class="cls-6" d="M578.42,81.51h31.77v71.19c0,4.88.48,9.08,1.46,12.6.97,3.52,2.41,6.41,4.31,8.67,1.92,2.27,4.28,3.94,7.08,5.02,2.82,1.07,6.05,1.6,9.71,1.6s6.9-.53,9.71-1.6c2.82-1.08,5.17-2.76,7.06-5.02,1.9-2.26,3.34-5.15,4.31-8.67.97-3.53,1.46-7.73,1.46-12.6v-71.19h31.77v74.02c0,8.31-1.33,15.67-4,22.08-2.67,6.41-6.41,11.81-11.21,16.21-4.81,4.39-10.54,7.72-17.19,9.98-6.64,2.26-13.95,3.4-21.92,3.4-5.32,0-10.35-.52-15.08-1.54-4.72-1.02-9.1-2.51-13.15-4.48-4.03-1.98-7.66-4.44-10.88-7.35-3.21-2.93-5.95-6.31-8.21-10.15-2.27-3.83-4-8.09-5.21-12.79-1.21-4.69-1.81-9.81-1.81-15.35v-74.02Z"/>
        <path class="cls-6" d="M850.03,81.51v123.1h-31.77v-96.46l-27.21,96.46h-31.85l-27.02-96.52v96.52h-30.31v-123.1h50.1l24.83,88.75,24.98-88.75h48.25Z"/>
      </g>
    </g>
  </g>
  <g class="cls-3">
    <path class="cls-4" d="M268.16,41.06l580.1.4"/>
  </g>
  <g class="cls-8">
    <g class="cls-1">
      <g class="cls-2">
        <path class="cls-6" d="M868.79,73.87c1.13,0,2.2.14,3.23.42,1.04.28,2.01.68,2.9,1.19.9.52,1.71,1.14,2.42,1.85.72.71,1.34,1.52,1.85,2.42.51.89.91,1.85,1.19,2.88.28,1.03.42,2.11.42,3.25s-.14,2.26-.42,3.31c-.28,1.04-.68,2.02-1.21,2.92-.53.91-1.16,1.72-1.9,2.46-.72.74-1.54,1.36-2.44,1.9-.91.53-1.88.93-2.92,1.21-1.04.28-2.14.42-3.27.42s-2.21-.14-3.25-.42c-1.03-.28-1.99-.68-2.9-1.21-.91-.52-1.72-1.13-2.44-1.85-.72-.72-1.35-1.53-1.88-2.44-.52-.9-.91-1.86-1.19-2.9-.28-1.04-.42-2.13-.42-3.27s.14-2.23.42-3.27c.28-1.04.68-2.01,1.21-2.92.53-.9,1.16-1.71,1.9-2.44.73-.72,1.55-1.34,2.46-1.88.9-.53,1.88-.93,2.92-1.21,1.05-.28,2.16-.42,3.31-.42ZM868.77,75.99c-.95,0-1.85.11-2.71.33-.85.22-1.64.55-2.38.98-.72.42-1.38.93-1.96,1.52-.58.6-1.08,1.27-1.5,2.02-.42.74-.74,1.54-.96,2.4-.22.86-.33,1.77-.33,2.73s.11,1.87.33,2.73c.22.86.53,1.67.94,2.42.4.74.9,1.41,1.48,2,.58.6,1.23,1.1,1.94,1.52.72.42,1.5.74,2.33.98.84.22,1.73.33,2.65.33s1.84-.11,2.69-.33c.84-.23,1.63-.57,2.35-1,.73-.43,1.4-.95,1.98-1.56.59-.61,1.1-1.29,1.52-2.04s.73-1.56.96-2.44c.22-.88.33-1.8.33-2.77s-.11-1.84-.33-2.69c-.21-.86-.52-1.65-.94-2.38-.41-.73-.89-1.4-1.46-1.98-.57-.58-1.22-1.07-1.94-1.48-.72-.42-1.5-.73-2.33-.96-.83-.22-1.72-.33-2.67-.33ZM866.54,91.68h-2.33v-11.17h5.6c.58,0,1.11.08,1.58.25.48.16.9.38,1.25.67.34.29.61.64.81,1.04.19.41.29.85.29,1.33,0,.57-.14,1.07-.4,1.5-.25.43-.61.77-1.08,1.02-.46.24-1,.36-1.63.38.8.07,1.46.66,1.96,1.75l1.44,3.23h-2.5l-1.44-2.96c-.13-.26-.27-.47-.44-.63-.16-.15-.35-.26-.58-.31-.24-.07-.54-.1-.9-.1h-1.65v4ZM866.54,85.45h2.63c.69,0,1.24-.11,1.65-.35.4-.25.6-.59.6-1.04s-.2-.76-.58-.98c-.39-.23-.95-.35-1.67-.35h-2.63v2.73Z"/>
      </g>
    </g>
  </g>
</svg>